<?xml version="1.0" encoding="UTF-8"?>
<svg xmlns="http://www.w3.org/2000/svg"
     xmlns:xlink="http://www.w3.org/1999/xlink"
     xmlns:gadfly="http://www.gadflyjl.org/ns"
     version="1.2"
     width="152.4mm" height="152.4mm" viewBox="0 0 152.4 152.4"
     stroke="none"
     fill="#000000"
     stroke-width="0.3"
>
<g class="plotroot xscalable yscalable" id="fig-f54ef5151e5b4c5bb28581b3507cc6ea-element-1">
  <g font-size="3.88" font-family="'PT Sans','Helvetica Neue','Helvetica',sans-serif" fill="#564A55" stroke="none" id="fig-f54ef5151e5b4c5bb28581b3507cc6ea-element-2">
    <text x="81.33" y="142.4" text-anchor="end" dy="0.35em" transform="rotate(-90, 81.33, 142.4)">x</text>
  </g>
  <g class="guide xlabels" font-size="2.82" font-family="'PT Sans Caption','Helvetica Neue','Helvetica',sans-serif" fill="#6C606B" id="fig-f54ef5151e5b4c5bb28581b3507cc6ea-element-3">
    <text x="17.27" y="140.4" text-anchor="middle">0</text>
    <text x="81.33" y="140.4" text-anchor="middle">5</text>
    <text x="145.4" y="140.4" text-anchor="middle">10</text>
  </g>
  <g clip-path="url(#fig-f54ef5151e5b4c5bb28581b3507cc6ea-element-5)" id="fig-f54ef5151e5b4c5bb28581b3507cc6ea-element-4">
    <g pointer-events="visible" opacity="1" fill="none" stroke="none" class="guide background" id="fig-f54ef5151e5b4c5bb28581b3507cc6ea-element-6">
      <rect x="15.27" y="5" width="132.13" height="131.73"/>
    </g>
    <g class="guide ygridlines xfixed" stroke-dasharray="0.5,0.5" stroke-width="0.2" stroke="#D0D0E0" id="fig-f54ef5151e5b4c5bb28581b3507cc6ea-element-7">
      <path d="M15.27,134.73 L 147.4 134.73"/>
      <path d="M15.27,102.8 L 147.4 102.8"/>
      <path d="M15.27,70.86 L 147.4 70.86"/>
      <path d="M15.27,38.93 L 147.4 38.93"/>
      <path d="M15.27,7 L 147.4 7"/>
    </g>
    <g class="guide xgridlines yfixed" stroke-dasharray="0.5,0.5" stroke-width="0.2" stroke="#D0D0E0" id="fig-f54ef5151e5b4c5bb28581b3507cc6ea-element-8">
      <path d="M17.27,5 L 17.27 136.73"/>
      <path d="M81.33,5 L 81.33 136.73"/>
      <path d="M145.4,5 L 145.4 136.73"/>
    </g>
    <g class="plotpanel" id="fig-f54ef5151e5b4c5bb28581b3507cc6ea-element-9">
      <g stroke-width="0.3" stroke="none" class="geometry" fill="#B9EAFF" id="fig-f54ef5151e5b4c5bb28581b3507cc6ea-element-10">
        <path d="M145.4,82.09 L 145.27 82.04 145.14 81.99 145.02 81.94 144.89 81.89 144.76 81.84 144.63 81.78 144.5 81.73 144.37 81.67 144.25 81.61 144.12 81.55 143.99 81.48 143.86 81.42 143.73 81.35 143.6 81.28 143.48 81.21 143.35 81.14 143.22 81.06 143.09 80.98 142.96 80.9 142.83 80.82 142.71 80.74 142.58 80.65 142.45 80.56 142.32 80.47 142.19 80.38 142.07 80.28 141.94 80.18 141.81 80.08 141.68 79.98 141.55 79.87 141.42 79.76 141.3 79.65 141.17 79.54 141.04 79.42 140.91 79.3 140.78 79.17 140.65 79.05 140.53 78.92 140.4 78.79 140.27 78.65 140.14 78.51 140.01 78.37 139.88 78.22 139.76 78.07 139.63 77.92 139.5 77.76 139.37 77.6 139.24 77.44 139.12 77.27 138.99 77.1 138.86 76.93 138.73 76.75 138.6 76.57 138.47 76.39 138.35 76.2 138.22 76 138.09 75.81 137.96 75.61 137.83 75.4 137.7 75.19 137.58 74.98 137.45 74.76 137.32 74.54 137.19 74.31 137.06 74.08 136.93 73.85 136.81 73.61 136.68 73.37 136.55 73.12 136.42 72.87 136.29 72.61 136.17 72.35 136.04 72.08 135.91 71.81 135.78 71.54 135.65 71.26 135.52 70.98 135.4 70.69 135.27 70.4 135.14 70.1 135.01 69.8 134.88 69.49 134.75 69.18 134.63 68.86 134.5 68.54 134.37 68.22 134.24 67.89 134.11 67.55 133.98 67.21 133.86 66.87 133.73 66.52 133.6 66.17 133.47 65.81 133.34 65.45 133.22 65.08 133.09 64.71 132.96 64.34 132.83 63.96 132.7 63.57 132.57 63.18 132.45 62.79 132.32 62.39 132.19 61.99 132.06 61.59 131.93 61.18 131.8 60.76 131.68 60.35 131.55 59.92 131.42 59.5 131.29 59.07 131.16 58.64 131.03 58.2 130.91 57.76 130.78 57.31 130.65 56.87 130.52 56.42 130.39 55.96 130.27 55.5 130.14 55.04 130.01 54.58 129.88 54.11 129.75 53.64 129.62 53.17 129.5 52.7 129.37 52.22 129.24 51.74 129.11 51.26 128.98 50.78 128.85 50.29 128.73 49.8 128.6 49.31 128.47 48.82 128.34 48.33 128.21 47.84 128.08 47.34 127.96 46.85 127.83 46.35 127.7 45.85 127.57 45.35 127.44 44.85 127.31 44.35 127.19 43.85 127.06 43.36 126.93 42.86 126.8 42.36 126.67 41.86 126.55 41.36 126.42 40.86 126.29 40.37 126.16 39.87 126.03 39.38 125.9 38.88 125.78 38.39 125.65 37.9 125.52 37.42 125.39 36.93 125.26 36.45 125.13 35.97 125.01 35.49 124.88 35.02 124.75 34.55 124.62 34.08 124.49 33.61 124.36 33.15 124.24 32.69 124.11 32.24 123.98 31.79 123.85 31.34 123.72 30.9 123.6 30.46 123.47 30.03 123.34 29.6 123.21 29.18 123.08 28.77 122.95 28.35 122.83 27.95 122.7 27.55 122.57 27.15 122.44 26.77 122.31 26.38 122.18 26.01 122.06 25.64 121.93 25.28 121.8 24.92 121.67 24.57 121.54 24.23 121.41 23.9 121.29 23.57 121.16 23.25 121.03 22.94 120.9 22.63 120.77 22.34 120.65 22.05 120.52 21.77 120.39 21.5 120.26 21.24 120.13 20.98 120 20.74 119.88 20.5 119.75 20.32 119.62 20.36 119.49 20.4 119.36 20.44 119.23 20.5 119.11 20.55 118.98 20.62 118.85 20.69 118.72 20.76 118.59 20.84 118.46 20.93 118.34 21.02 118.21 21.11 118.08 21.22 117.95 21.32 117.82 21.43 117.7 21.55 117.57 21.67 117.44 21.8 117.31 21.93 117.18 22.06 117.05 22.2 116.93 22.35 116.8 22.5 116.67 22.65 116.54 22.81 116.41 22.97 116.28 23.14 116.16 23.31 116.03 23.48 115.9 23.66 115.77 23.84 115.64 24.03 115.51 24.22 115.39 24.41 115.26 24.61 115.13 24.81 115 25.01 114.87 25.21 114.75 25.42 114.62 25.63 114.49 25.85 114.36 26.07 114.23 26.29 114.1 26.51 113.98 26.74 113.85 26.96 113.72 27.19 113.59 27.43 113.46 27.66 113.33 27.9 113.21 28.14 113.08 28.38 112.95 28.62 112.82 28.87 112.69 29.11 112.56 29.36 112.44 29.61 112.31 29.87 112.18 30.12 112.05 30.38 111.92 30.63 111.8 30.89 111.67 31.15 111.54 31.41 111.41 31.68 111.28 31.94 111.15 32.21 111.03 32.47 110.9 32.74 110.77 33.01 110.64 33.28 110.51 33.55 110.38 33.82 110.26 34.1 110.13 34.37 110 34.65 109.87 34.92 109.74 35.2 109.61 35.48 109.49 35.76 109.36 36.04 109.23 36.32 109.1 36.61 108.97 36.89 108.85 37.18 108.72 37.46 108.59 37.75 108.46 38.04 108.33 38.33 108.2 38.62 108.08 38.91 107.95 39.2 107.82 39.49 107.69 39.79 107.56 40.08 107.43 40.38 107.31 40.68 107.18 40.98 107.05 41.28 106.92 41.64 106.79 42.15 106.66 42.65 106.54 43.15 106.41 43.66 106.28 44.16 106.15 44.66 106.02 45.17 105.9 45.67 105.77 46.18 105.64 46.68 105.51 47.19 105.38 47.69 105.25 48.19 105.13 48.69 105 49.19 104.87 49.69 104.74 50.19 104.61 50.69 104.48 51.19 104.36 51.68 104.23 52.17 104.1 52.66 103.97 53.15 103.84 53.64 103.71 54.13 103.59 54.61 103.46 55.09 103.33 55.57 103.2 56.04 103.07 56.52 102.95 56.99 102.82 57.46 102.69 57.92 102.56 58.39 102.43 58.85 102.3 59.3 102.18 59.76 102.05 60.21 101.92 60.66 101.79 61.1 101.66 61.54 101.53 61.98 101.41 62.41 101.28 62.85 101.15 63.27 101.02 63.7 100.89 64.12 100.76 64.54 100.64 64.95 100.51 65.36 100.38 65.77 100.25 66.17 100.12 66.57 100 66.97 99.87 67.36 99.74 67.75 99.61 68.14 99.48 68.52 99.35 68.9 99.23 69.27 99.1 69.64 98.97 70.01 98.84 70.38 98.71 70.74 98.58 71.09 98.46 71.45 98.33 71.8 98.2 72.14 98.07 72.49 97.94 72.83 97.81 73.16 97.69 73.5 97.56 73.83 97.43 74.15 97.3 74.48 97.17 74.8 97.05 75.12 96.92 75.43 96.79 75.74 96.66 76.05 96.53 76.36 96.4 76.66 96.28 76.96 96.15 77.25 96.02 77.55 95.89 77.84 95.76 78.13 95.63 78.42 95.51 78.7 95.38 78.98 95.25 79.26 95.12 79.54 94.99 79.81 94.86 80.08 94.74 80.35 94.61 80.62 94.48 80.89 94.35 81.15 94.22 81.41 94.1 81.75 93.97 82.21 93.84 82.67 93.71 83.12 93.58 83.57 93.45 84.02 93.33 84.47 93.2 84.91 93.07 85.35 92.94 85.79 92.81 86.23 92.68 86.66 92.56 87.1 92.43 87.52 92.3 87.95 92.17 88.37 92.04 88.79 91.91 89.2 91.79 89.61 91.66 90.02 91.53 90.42 91.4 90.82 91.27 91.21 91.14 91.6 91.02 91.99 90.89 92.37 90.76 92.74 90.63 93.11 90.5 93.48 90.38 93.84 90.25 94.2 90.12 94.54 89.99 94.89 89.86 95.23 89.73 95.56 89.61 95.89 89.48 96.21 89.35 96.52 89.22 96.83 89.09 97.13 88.96 97.43 88.84 97.72 88.71 98 88.58 98.28 88.45 98.55 88.32 98.81 88.19 99.07 88.07 99.32 87.94 99.56 87.81 99.79 87.68 100.02 87.55 100.24 87.43 100.45 87.3 100.66 87.17 100.85 87.04 101.04 86.91 101.23 86.78 101.4 86.66 101.57 86.53 101.73 86.4 101.88 86.27 102.02 86.14 102.16 86.01 102.28 85.89 102.4 85.76 102.51 85.63 102.62 85.5 102.71 85.37 102.8 85.24 102.88 85.12 102.95 84.99 103.01 84.86 103.07 84.73 103.12 84.6 103.15 84.48 103.19 84.35 103.21 84.22 103.22 84.09 103.23 83.96 103.23 83.83 103.22 83.71 103.2 83.58 103.17 83.45 103.14 83.32 103.1 83.19 103.05 83.06 102.99 82.94 102.93 82.81 102.85 82.68 102.77 82.55 102.69 82.42 102.59 82.29 102.49 82.17 102.38 82.04 102.26 81.91 102.13 81.78 102 81.65 101.86 81.53 101.72 81.4 101.56 81.27 101.53 81.14 101.62 81.01 101.71 80.88 101.79 80.76 101.87 80.63 101.95 80.5 102.02 80.37 102.09 80.24 102.15 80.11 102.21 79.99 102.26 79.86 102.31 79.73 102.36 79.6 102.4 79.47 102.44 79.34 102.47 79.22 102.5 79.09 102.52 78.96 102.54 78.83 102.55 78.7 102.56 78.58 102.57 78.45 102.57 78.32 102.57 78.19 102.56 78.06 102.55 77.93 102.53 77.81 102.51 77.68 102.48 77.55 102.45 77.42 102.42 77.29 102.38 77.16 102.34 77.04 102.29 76.91 102.24 76.78 102.18 76.65 102.12 76.52 102.05 76.39 101.99 76.27 101.91 76.14 101.83 76.01 101.75 75.88 101.66 75.75 101.57 75.63 101.48 75.5 101.38 75.37 101.28 75.24 101.17 75.11 101.06 74.98 100.95 74.86 100.83 74.73 100.71 74.6 100.58 74.47 100.45 74.34 100.32 74.21 100.18 74.09 100.04 73.96 99.9 73.83 99.75 73.7 99.6 73.57 99.45 73.44 99.29 73.32 99.13 73.19 98.97 73.06 98.8 72.93 98.63 72.8 98.46 72.68 98.28 72.55 98.11 72.42 97.93 72.29 97.74 72.16 97.56 72.03 97.37 71.91 97.18 71.78 96.99 71.65 96.79 71.52 96.59 71.39 96.39 71.26 96.19 71.14 95.99 71.01 95.78 70.88 95.57 70.75 95.36 70.62 95.15 70.49 94.94 70.37 94.72 70.24 94.51 70.11 94.29 69.98 94.07 69.85 93.85 69.73 93.63 69.6 93.4 69.47 93.18 69.34 92.95 69.21 92.72 69.08 92.49 68.96 92.26 68.83 92.03 68.7 91.8 68.57 91.57 68.44 91.33 68.31 91.1 68.19 90.86 68.06 90.62 67.93 90.39 67.8 90.15 67.67 89.91 67.54 89.67 67.42 89.43 67.29 89.19 67.16 88.95 67.03 88.71 66.9 88.47 66.78 88.22 66.65 87.98 66.52 87.74 66.39 87.5 66.26 87.25 66.13 87.01 66.01 86.77 65.88 86.52 65.75 86.28 65.62 86.03 65.49 85.79 65.36 85.54 65.24 85.3 65.11 85.05 64.98 84.81 64.85 84.57 64.72 84.32 64.59 84.08 64.47 83.83 64.34 83.59 64.21 83.34 64.08 83.1 63.95 82.85 63.83 82.61 63.7 82.37 63.57 82.12 63.44 81.88 63.31 81.64 63.18 81.39 63.06 81.15 62.93 80.91 62.8 80.67 62.67 80.42 62.54 80.18 62.41 79.94 62.29 79.7 62.16 79.46 62.03 79.22 61.9 78.98 61.77 78.74 61.64 78.5 61.52 78.26 61.39 78.02 61.26 77.79 61.13 77.55 61 77.31 60.88 77.07 60.75 76.84 60.62 76.6 60.49 76.37 60.36 76.13 60.23 75.9 60.11 75.67 59.98 75.43 59.85 75.2 59.72 74.97 59.59 74.74 59.46 74.51 59.34 74.28 59.21 74.05 59.08 73.82 58.95 73.6 58.82 73.37 58.69 73.15 58.57 72.92 58.44 72.7 58.31 72.47 58.18 72.25 58.05 72.03 57.93 71.81 57.8 71.59 57.67 71.37 57.54 71.15 57.41 70.94 57.28 70.72 57.16 70.51 57.03 70.29 56.9 70.08 56.77 69.87 56.64 69.66 56.51 69.45 56.39 69.24 56.26 69.03 56.13 68.83 56 68.63 55.87 68.42 55.74 68.22 55.62 68.25 55.49 68.39 55.36 68.52 55.23 68.66 55.1 68.79 54.97 68.93 54.85 69.07 54.72 69.21 54.59 69.35 54.46 69.49 54.33 69.63 54.21 69.77 54.08 69.91 53.95 70.05 53.82 70.2 53.69 70.34 53.56 70.48 53.44 70.63 53.31 70.77 53.18 70.91 53.05 71.06 52.92 71.2 52.79 71.34 52.67 71.49 52.54 71.63 52.41 71.77 52.28 71.91 52.15 72.05 52.02 72.19 51.9 72.33 51.77 72.47 51.64 72.61 51.51 72.75 51.38 72.88 51.26 73.02 51.13 73.15 51 73.29 50.87 73.42 50.74 73.55 50.61 73.68 50.49 73.81 50.36 73.93 50.23 74.06 50.1 74.18 49.97 74.31 49.84 74.43 49.72 74.54 49.59 74.66 49.46 74.78 49.33 74.89 49.2 75 49.07 75.11 48.95 75.22 48.82 75.33 48.69 75.43 48.56 75.53 48.43 75.63 48.31 75.73 48.18 75.83 48.05 75.92 47.92 76.01 47.79 76.1 47.66 76.19 47.54 76.27 47.41 76.35 47.28 76.43 47.15 76.51 47.02 76.59 46.89 76.66 46.77 76.73 46.64 76.8 46.51 76.86 46.38 76.92 46.25 76.98 46.12 77.04 46 77.09 45.87 77.15 45.74 77.2 45.61 77.24 45.48 77.29 45.36 77.33 45.23 77.36 45.1 77.4 44.97 77.43 44.84 77.46 44.71 77.49 44.59 77.51 44.46 77.54 44.33 77.56 44.2 77.57 44.07 77.58 43.94 77.59 43.82 77.6 43.69 77.61 43.56 77.61 43.43 77.61 43.3 77.6 43.17 77.6 43.05 77.59 42.92 77.58 42.79 77.56 42.66 77.54 42.53 77.52 42.41 77.5 42.28 77.47 42.15 77.44 42.02 77.41 41.89 77.37 41.76 77.34 41.64 77.3 41.51 77.25 41.38 77.21 41.25 77.16 41.12 77.1 40.99 77.05 40.87 76.99 40.74 76.93 40.61 76.87 40.48 76.8 40.35 76.74 40.22 76.67 40.1 76.59 39.97 76.52 39.84 76.44 39.71 76.36 39.58 76.27 39.46 76.19 39.33 76.1 39.2 76.01 39.07 75.91 38.94 75.82 38.81 75.72 38.69 75.62 38.56 75.51 38.43 75.41 38.3 75.3 38.17 75.19 38.04 75.08 37.92 74.96 37.79 74.85 37.66 74.73 37.53 74.61 37.4 74.48 37.27 74.36 37.15 74.23 37.02 74.1 36.89 73.97 36.76 73.84 36.63 73.7 36.51 73.57 36.38 73.43 36.25 73.29 36.12 73.15 35.99 73 35.86 72.86 35.74 72.71 35.61 72.56 35.48 72.42 35.35 72.26 35.22 72.11 35.09 71.96 34.97 71.8 34.84 71.65 34.71 71.49 34.58 71.33 34.45 71.17 34.32 71.01 34.2 70.85 34.07 70.69 33.94 70.53 33.81 70.36 33.68 70.2 33.56 70.03 33.43 69.87 33.3 69.7 33.17 69.53 33.04 69.37 32.91 69.2 32.79 69.03 32.66 68.86 32.53 68.69 32.4 68.52 32.27 68.35 32.14 68.19 32.02 68.02 31.89 67.85 31.76 67.68 31.63 67.51 31.5 67.34 31.37 67.17 31.25 67 31.12 66.83 30.99 66.67 30.86 66.5 30.73 66.33 30.61 66.17 30.48 66 30.35 65.83 30.22 65.67 30.09 65.51 29.96 65.64 29.84 65.81 29.71 65.99 29.58 66.16 29.45 66.33 29.32 66.51 29.19 66.68 29.07 66.86 28.94 67.03 28.81 67.21 28.68 67.39 28.55 67.56 28.42 67.74 28.3 67.92 28.17 68.09 28.04 68.27 27.91 68.45 27.78 68.63 27.66 68.81 27.53 68.99 27.4 69.16 27.27 69.34 27.14 69.52 27.01 69.7 26.89 69.88 26.76 70.05 26.63 70.23 26.5 70.41 26.37 70.58 26.24 70.76 26.12 70.93 25.99 71.11 25.86 71.28 25.73 71.45 25.6 71.63 25.47 71.8 25.35 71.97 25.22 72.14 25.09 72.31 24.96 72.48 24.83 72.65 24.71 72.81 24.58 72.98 24.45 73.15 24.32 73.31 24.19 73.47 24.06 73.63 23.94 73.79 23.81 73.95 23.68 74.11 23.55 74.27 23.42 74.42 23.29 74.58 23.17 74.73 23.04 74.88 22.91 75.03 22.78 75.18 22.65 75.33 22.52 75.48 22.4 75.62 22.27 75.76 22.14 75.91 22.01 76.05 21.88 76.18 21.76 76.32 21.63 76.46 21.5 76.59 21.37 76.72 21.24 76.85 21.11 76.98 20.99 77.11 20.86 77.24 20.73 77.36 20.6 77.48 20.47 77.61 20.34 77.73 20.22 77.84 20.09 77.96 19.96 78.07 19.83 78.19 19.7 78.3 19.57 78.41 19.45 78.52 19.32 78.62 19.19 78.73 19.06 78.83 18.93 78.93 18.8 79.03 18.68 79.13 18.55 79.23 18.42 79.32 18.29 79.41 18.16 79.51 18.04 79.6 17.91 79.68 17.78 79.77 17.65 79.86 17.52 79.94 17.39 80.02 17.27 80.1 17.27 57.28 17.39 57.29 17.52 57.29 17.65 57.3 17.78 57.3 17.91 57.31 18.04 57.32 18.16 57.33 18.29 57.34 18.42 57.35 18.55 57.36 18.68 57.37 18.8 57.39 18.93 57.41 19.06 57.42 19.19 57.44 19.32 57.46 19.45 57.48 19.57 57.51 19.7 57.53 19.83 57.56 19.96 57.58 20.09 57.61 20.22 57.64 20.34 57.68 20.47 57.71 20.6 57.75 20.73 57.78 20.86 57.82 20.99 57.86 21.11 57.9 21.24 57.95 21.37 57.99 21.5 58.04 21.63 58.09 21.76 58.14 21.88 58.19 22.01 58.25 22.14 58.3 22.27 58.36 22.4 58.42 22.52 58.49 22.65 58.55 22.78 58.62 22.91 58.68 23.04 58.75 23.17 58.83 23.29 58.9 23.42 58.98 23.55 59.05 23.68 59.13 23.81 59.22 23.94 59.3 24.06 59.39 24.19 59.48 24.32 59.57 24.45 59.66 24.58 59.75 24.71 59.85 24.83 59.95 24.96 60.05 25.09 60.15 25.22 60.26 25.35 60.36 25.47 60.47 25.6 60.58 25.73 60.69 25.86 60.81 25.99 60.92 26.12 61.04 26.24 61.16 26.37 61.28 26.5 61.41 26.63 61.53 26.76 61.66 26.89 61.79 27.01 61.92 27.14 62.05 27.27 62.19 27.4 62.32 27.53 62.46 27.66 62.6 27.78 62.74 27.91 62.88 28.04 63.03 28.17 63.17 28.3 63.32 28.42 63.47 28.55 63.62 28.68 63.77 28.81 63.92 28.94 64.08 29.07 64.23 29.19 64.39 29.32 64.54 29.45 64.7 29.58 64.86 29.71 65.02 29.84 65.18 29.96 65.34 30.09 65.47 30.22 65.3 30.35 65.14 30.48 64.97 30.61 64.8 30.73 64.64 30.86 64.47 30.99 64.31 31.12 64.15 31.25 63.98 31.37 63.82 31.5 63.67 31.63 63.51 31.76 63.35 31.89 63.2 32.02 63.05 32.14 62.89 32.27 62.74 32.4 62.6 32.53 62.45 32.66 62.3 32.79 62.16 32.91 62.02 33.04 61.88 33.17 61.74 33.3 61.6 33.43 61.47 33.56 61.33 33.68 61.2 33.81 61.07 33.94 60.95 34.07 60.82 34.2 60.7 34.32 60.57 34.45 60.45 34.58 60.34 34.71 60.22 34.84 60.1 34.97 59.99 35.09 59.88 35.22 59.77 35.35 59.67 35.48 59.56 35.61 59.46 35.74 59.36 35.86 59.26 35.99 59.17 36.12 59.07 36.25 58.98 36.38 58.89 36.51 58.8 36.63 58.72 36.76 58.64 36.89 58.55 37.02 58.48 37.15 58.4 37.27 58.32 37.4 58.25 37.53 58.18 37.66 58.11 37.79 58.05 37.92 57.98 38.04 57.92 38.17 57.86 38.3 57.8 38.43 57.75 38.56 57.69 38.69 57.64 38.81 57.59 38.94 57.54 39.07 57.5 39.2 57.45 39.33 57.41 39.46 57.37 39.58 57.34 39.71 57.3 39.84 57.27 39.97 57.24 40.1 57.21 40.22 57.18 40.35 57.15 40.48 57.13 40.61 57.11 40.74 57.09 40.87 57.07 40.99 57.06 41.12 57.05 41.25 57.03 41.38 57.03 41.51 57.02 41.64 57.01 41.76 57.01 41.89 57.01 42.02 57.01 42.15 57.01 42.28 57.01 42.41 57.02 42.53 57.03 42.66 57.04 42.79 57.05 42.92 57.07 43.05 57.08 43.17 57.1 43.3 57.12 43.43 57.14 43.56 57.16 43.69 57.19 43.82 57.22 43.94 57.25 44.07 57.28 44.2 57.31 44.33 57.34 44.46 57.38 44.59 57.42 44.71 57.46 44.84 57.5 44.97 57.55 45.1 57.59 45.23 57.64 45.36 57.69 45.48 57.74 45.61 57.8 45.74 57.85 45.87 57.91 46 57.97 46.12 58.03 46.25 58.1 46.38 58.16 46.51 58.23 46.64 58.3 46.77 58.37 46.89 58.45 47.02 58.52 47.15 58.6 47.28 58.68 47.41 58.76 47.54 58.85 47.66 58.93 47.79 59.02 47.92 59.11 48.05 59.2 48.18 59.29 48.31 59.39 48.43 59.49 48.56 59.59 48.69 59.69 48.82 59.79 48.95 59.9 49.07 60.01 49.2 60.12 49.33 60.23 49.46 60.34 49.59 60.46 49.72 60.58 49.84 60.7 49.97 60.82 50.1 60.94 50.23 61.07 50.36 61.19 50.49 61.32 50.61 61.46 50.74 61.59 50.87 61.73 51 61.86 51.13 62 51.26 62.14 51.38 62.29 51.51 62.43 51.64 62.58 51.77 62.73 51.9 62.88 52.02 63.03 52.15 63.19 52.28 63.35 52.41 63.5 52.54 63.67 52.67 63.83 52.79 63.99 52.92 64.16 53.05 64.33 53.18 64.49 53.31 64.67 53.44 64.84 53.56 65.01 53.69 65.19 53.82 65.37 53.95 65.55 54.08 65.73 54.21 65.91 54.33 66.09 54.46 66.28 54.59 66.47 54.72 66.66 54.85 66.85 54.97 67.04 55.1 67.23 55.23 67.43 55.36 67.62 55.49 67.82 55.62 68.02 55.74 68.12 55.87 67.99 56 67.86 56.13 67.73 56.26 67.61 56.39 67.48 56.51 67.36 56.64 67.24 56.77 67.12 56.9 67.01 57.03 66.89 57.16 66.78 57.28 66.67 57.41 66.56 57.54 66.45 57.67 66.35 57.8 66.25 57.93 66.15 58.05 66.06 58.18 65.96 58.31 65.87 58.44 65.78 58.57 65.7 58.69 65.62 58.82 65.54 58.95 65.46 59.08 65.39 59.21 65.32 59.34 65.25 59.46 65.19 59.59 65.13 59.72 65.07 59.85 65.02 59.98 64.97 60.11 64.92 60.23 64.88 60.36 64.84 60.49 64.81 60.62 64.78 60.75 64.75 60.88 64.73 61 64.71 61.13 64.69 61.26 64.68 61.39 64.67 61.52 64.67 61.64 64.67 61.77 64.68 61.9 64.68 62.03 64.7 62.16 64.72 62.29 64.74 62.41 64.77 62.54 64.8 62.67 64.83 62.8 64.87 62.93 64.92 63.06 64.97 63.18 65.02 63.31 65.08 63.44 65.14 63.57 65.21 63.7 65.28 63.83 65.35 63.95 65.44 64.08 65.52 64.21 65.61 64.34 65.71 64.47 65.81 64.59 65.91 64.72 66.02 64.85 66.14 64.98 66.25 65.11 66.38 65.24 66.51 65.36 66.64 65.49 66.78 65.62 66.92 65.75 67.07 65.88 67.22 66.01 67.38 66.13 67.54 66.26 67.7 66.39 67.87 66.52 68.05 66.65 68.23 66.78 68.41 66.9 68.6 67.03 68.8 67.16 69 67.29 69.2 67.42 69.41 67.54 69.62 67.67 69.83 67.8 70.05 67.93 70.28 68.06 70.51 68.19 70.74 68.31 70.98 68.44 71.22 68.57 71.47 68.7 71.72 68.83 71.97 68.96 72.23 69.08 72.49 69.21 72.76 69.34 73.03 69.47 73.3 69.6 73.58 69.73 73.86 69.85 74.15 69.98 74.43 70.11 74.72 70.24 75.02 70.37 75.32 70.49 75.62 70.62 75.92 70.75 76.23 70.88 76.54 71.01 76.86 71.14 77.17 71.26 77.49 71.39 77.81 71.52 78.14 71.65 78.46 71.78 78.79 71.91 79.12 72.03 79.46 72.16 79.79 72.29 80.13 72.42 80.47 72.55 80.81 72.68 81.16 72.8 81.5 72.93 81.85 73.06 82.19 73.19 82.54 73.32 82.89 73.44 83.24 73.57 83.59 73.7 83.95 73.83 84.3 73.96 84.65 74.09 85.01 74.21 85.36 74.34 85.72 74.47 86.07 74.6 86.42 74.73 86.78 74.86 87.13 74.98 87.49 75.11 87.84 75.24 88.19 75.37 88.54 75.5 88.89 75.63 89.24 75.75 89.59 75.88 89.93 76.01 90.28 76.14 90.62 76.27 90.96 76.39 91.3 76.52 91.64 76.65 91.97 76.78 92.31 76.91 92.64 77.04 92.96 77.16 93.29 77.29 93.61 77.42 93.93 77.55 94.24 77.68 94.55 77.81 94.86 77.93 95.17 78.06 95.47 78.19 95.77 78.32 96.06 78.45 96.35 78.58 96.63 78.7 96.91 78.83 97.19 78.96 97.46 79.09 97.73 79.22 97.99 79.34 98.24 79.47 98.49 79.6 98.74 79.73 98.98 79.86 99.22 79.99 99.45 80.11 99.67 80.24 99.89 80.37 100.1 80.5 100.3 80.63 100.5 80.76 100.7 80.88 100.88 81.01 101.06 81.14 101.24 81.27 101.4 81.4 101.44 81.53 101.34 81.65 101.23 81.78 101.13 81.91 101.02 82.04 100.9 82.17 100.79 82.29 100.67 82.42 100.54 82.55 100.41 82.68 100.28 82.81 100.15 82.94 100.01 83.06 99.87 83.19 99.73 83.32 99.58 83.45 99.43 83.58 99.28 83.71 99.12 83.83 98.96 83.96 98.8 84.09 98.64 84.22 98.47 84.35 98.31 84.48 98.14 84.6 97.96 84.73 97.79 84.86 97.61 84.99 97.43 85.12 97.25 85.24 97.06 85.37 96.88 85.5 96.69 85.63 96.5 85.76 96.31 85.89 96.12 86.01 95.92 86.14 95.73 86.27 95.53 86.4 95.33 86.53 95.13 86.66 94.93 86.78 94.72 86.91 94.52 87.04 94.31 87.17 94.11 87.3 93.9 87.43 93.69 87.55 93.48 87.68 93.27 87.81 93.06 87.94 92.84 88.07 92.63 88.19 92.41 88.32 92.2 88.45 91.98 88.58 91.76 88.71 91.55 88.84 91.33 88.96 91.11 89.09 90.89 89.22 90.67 89.35 90.45 89.48 90.22 89.61 90 89.73 89.78 89.86 89.55 89.99 89.33 90.12 89.1 90.25 88.88 90.38 88.65 90.5 88.42 90.63 88.2 90.76 87.97 90.89 87.74 91.02 87.51 91.14 87.28 91.27 87.04 91.4 86.81 91.53 86.58 91.66 86.34 91.79 86.11 91.91 85.87 92.04 85.64 92.17 85.4 92.3 85.16 92.43 84.92 92.56 84.68 92.68 84.43 92.81 84.19 92.94 83.95 93.07 83.7 93.2 83.45 93.33 83.2 93.45 82.95 93.58 82.7 93.71 82.45 93.84 82.19 93.97 81.93 94.1 81.67 94.22 81.3 94.35 80.84 94.48 80.37 94.61 79.91 94.74 79.45 94.86 78.98 94.99 78.52 95.12 78.05 95.25 77.59 95.38 77.12 95.51 76.65 95.63 76.19 95.76 75.72 95.89 75.25 96.02 74.78 96.15 74.32 96.28 73.85 96.4 73.38 96.53 72.92 96.66 72.45 96.79 71.99 96.92 71.52 97.05 71.06 97.17 70.6 97.3 70.14 97.43 69.68 97.56 69.22 97.69 68.76 97.81 68.31 97.94 67.85 98.07 67.4 98.2 66.95 98.33 66.5 98.46 66.05 98.58 65.61 98.71 65.16 98.84 64.72 98.97 64.28 99.1 63.84 99.23 63.41 99.35 62.98 99.48 62.54 99.61 62.12 99.74 61.69 99.87 61.26 100 60.84 100.12 60.42 100.25 60.01 100.38 59.59 100.51 59.18 100.64 58.77 100.76 58.36 100.89 57.96 101.02 57.55 101.15 57.15 101.28 56.76 101.41 56.36 101.53 55.97 101.66 55.58 101.79 55.19 101.92 54.81 102.05 54.43 102.18 54.05 102.3 53.67 102.43 53.3 102.56 52.93 102.69 52.56 102.82 52.19 102.95 51.83 103.07 51.46 103.2 51.1 103.33 50.75 103.46 50.39 103.59 50.04 103.71 49.69 103.84 49.34 103.97 49 104.1 48.65 104.23 48.31 104.36 47.97 104.48 47.64 104.61 47.3 104.74 46.97 104.87 46.64 105 46.31 105.13 45.98 105.25 45.66 105.38 45.33 105.51 45.01 105.64 44.69 105.77 44.37 105.9 44.06 106.02 43.74 106.15 43.43 106.28 43.12 106.41 42.81 106.54 42.5 106.66 42.19 106.79 41.89 106.92 41.58 107.05 41.14 107.18 40.64 107.31 40.15 107.43 39.65 107.56 39.15 107.69 38.66 107.82 38.17 107.95 37.68 108.08 37.19 108.2 36.71 108.33 36.23 108.46 35.75 108.59 35.27 108.72 34.8 108.85 34.33 108.97 33.86 109.1 33.4 109.23 32.94 109.36 32.48 109.49 32.03 109.61 31.59 109.74 31.14 109.87 30.71 110 30.27 110.13 29.84 110.26 29.42 110.38 29 110.51 28.59 110.64 28.18 110.77 27.78 110.9 27.38 111.03 26.99 111.15 26.61 111.28 26.23 111.41 25.86 111.54 25.49 111.67 25.14 111.8 24.79 111.92 24.44 112.05 24.1 112.18 23.77 112.31 23.45 112.44 23.14 112.56 22.83 112.69 22.53 112.82 22.24 112.95 21.95 113.08 21.68 113.21 21.41 113.33 21.15 113.46 20.9 113.59 20.66 113.72 20.43 113.85 20.2 113.98 19.99 114.1 19.78 114.23 19.58 114.36 19.39 114.49 19.21 114.62 19.04 114.75 18.88 114.87 18.73 115 18.59 115.13 18.46 115.26 18.34 115.39 18.22 115.51 18.12 115.64 18.03 115.77 17.94 115.9 17.87 116.03 17.81 116.16 17.75 116.28 17.71 116.41 17.67 116.54 17.65 116.67 17.64 116.8 17.63 116.93 17.64 117.05 17.66 117.18 17.68 117.31 17.72 117.44 17.77 117.57 17.82 117.7 17.89 117.82 17.97 117.95 18.05 118.08 18.15 118.21 18.25 118.34 18.37 118.46 18.49 118.59 18.63 118.72 18.77 118.85 18.93 118.98 19.09 119.11 19.27 119.23 19.45 119.36 19.64 119.49 19.84 119.62 20.05 119.75 20.27 119.88 20.29 120 20.27 120.13 20.25 120.26 20.24 120.39 20.24 120.52 20.24 120.65 20.25 120.77 20.26 120.9 20.28 121.03 20.3 121.16 20.33 121.29 20.37 121.41 20.42 121.54 20.47 121.67 20.52 121.8 20.58 121.93 20.65 122.06 20.73 122.18 20.81 122.31 20.89 122.44 20.99 122.57 21.08 122.7 21.19 122.83 21.3 122.95 21.41 123.08 21.54 123.21 21.67 123.34 21.8 123.47 21.94 123.6 22.08 123.72 22.23 123.85 22.39 123.98 22.55 124.11 22.72 124.24 22.89 124.36 23.07 124.49 23.25 124.62 23.44 124.75 23.63 124.88 23.83 125.01 24.04 125.13 24.24 125.26 24.46 125.39 24.67 125.52 24.9 125.65 25.12 125.78 25.35 125.9 25.59 126.03 25.83 126.16 26.07 126.29 26.31 126.42 26.57 126.55 26.82 126.67 27.08 126.8 27.34 126.93 27.6 127.06 27.87 127.19 28.14 127.31 28.42 127.44 28.69 127.57 28.97 127.7 29.26 127.83 29.54 127.96 29.83 128.08 30.12 128.21 30.41 128.34 30.7 128.47 31 128.6 31.3 128.73 31.59 128.85 31.9 128.98 32.2 129.11 32.5 129.24 32.81 129.37 33.11 129.5 33.42 129.62 33.72 129.75 34.03 129.88 34.34 130.01 34.65 130.14 34.96 130.27 35.27 130.39 35.58 130.52 35.89 130.65 36.2 130.78 36.51 130.91 36.82 131.03 37.13 131.16 37.44 131.29 37.74 131.42 38.05 131.55 38.36 131.68 38.66 131.8 38.97 131.93 39.27 132.06 39.57 132.19 39.87 132.32 40.17 132.45 40.47 132.57 40.76 132.7 41.06 132.83 41.35 132.96 41.64 133.09 41.93 133.22 42.22 133.34 42.5 133.47 42.79 133.6 43.07 133.73 43.35 133.86 43.62 133.98 43.9 134.11 44.17 134.24 44.44 134.37 44.7 134.5 44.97 134.63 45.23 134.75 45.49 134.88 45.74 135.01 46 135.14 46.25 135.27 46.49 135.4 46.74 135.52 46.98 135.65 47.22 135.78 47.45 135.91 47.69 136.04 47.92 136.17 48.14 136.29 48.37 136.42 48.59 136.55 48.81 136.68 49.02 136.81 49.23 136.93 49.44 137.06 49.65 137.19 49.85 137.32 50.05 137.45 50.24 137.58 50.43 137.7 50.62 137.83 50.81 137.96 50.99 138.09 51.17 138.22 51.35 138.35 51.53 138.47 51.7 138.6 51.86 138.73 52.03 138.86 52.19 138.99 52.35 139.12 52.51 139.24 52.66 139.37 52.81 139.5 52.96 139.63 53.1 139.76 53.24 139.88 53.38 140.01 53.51 140.14 53.65 140.27 53.78 140.4 53.9 140.53 54.03 140.65 54.15 140.78 54.27 140.91 54.38 141.04 54.5 141.17 54.61 141.3 54.72 141.42 54.82 141.55 54.93 141.68 55.03 141.81 55.13 141.94 55.22 142.07 55.32 142.19 55.41 142.32 55.5 142.45 55.59 142.58 55.67 142.71 55.76 142.83 55.84 142.96 55.92 143.09 55.99 143.22 56.07 143.35 56.14 143.48 56.21 143.6 56.28 143.73 56.35 143.86 56.41 143.99 56.48 144.12 56.54 144.25 56.6 144.37 56.66 144.5 56.71 144.63 56.77 144.76 56.82 144.89 56.87 145.02 56.92 145.14 56.97 145.27 57.02 145.4 57.07 z"/>
      </g>
      <g stroke-width="0.3" fill="none" class="geometry" stroke="#00BFFF" id="fig-f54ef5151e5b4c5bb28581b3507cc6ea-element-11">
        <path d="M17.27,68.69 L 17.39 68.65 17.52 68.62 17.65 68.58 17.78 68.54 17.91 68.5 18.04 68.46 18.16 68.42 18.29 68.37 18.42 68.33 18.55 68.29 18.68 68.25 18.8 68.21 18.93 68.17 19.06 68.13 19.19 68.08 19.32 68.04 19.45 68 19.57 67.96 19.7 67.91 19.83 67.87 19.96 67.83 20.09 67.79 20.22 67.74 20.34 67.7 20.47 67.66 20.6 67.62 20.73 67.57 20.86 67.53 20.99 67.49 21.11 67.44 21.24 67.4 21.37 67.36 21.5 67.32 21.63 67.27 21.76 67.23 21.88 67.19 22.01 67.15 22.14 67.1 22.27 67.06 22.4 67.02 22.52 66.98 22.65 66.94 22.78 66.9 22.91 66.86 23.04 66.82 23.17 66.78 23.29 66.74 23.42 66.7 23.55 66.66 23.68 66.62 23.81 66.59 23.94 66.55 24.06 66.51 24.19 66.47 24.32 66.44 24.45 66.4 24.58 66.37 24.71 66.33 24.83 66.3 24.96 66.26 25.09 66.23 25.22 66.2 25.35 66.17 25.47 66.13 25.6 66.1 25.73 66.07 25.86 66.04 25.99 66.02 26.12 65.99 26.24 65.96 26.37 65.93 26.5 65.91 26.63 65.88 26.76 65.86 26.89 65.83 27.01 65.81 27.14 65.79 27.27 65.76 27.4 65.74 27.53 65.72 27.66 65.7 27.78 65.69 27.91 65.67 28.04 65.65 28.17 65.63 28.3 65.62 28.42 65.6 28.55 65.59 28.68 65.58 28.81 65.57 28.94 65.55 29.07 65.54 29.19 65.53 29.32 65.53 29.45 65.52 29.58 65.51 29.71 65.5 29.84 65.5 29.96 65.49 30.09 65.49 30.22 65.49 30.35 65.48 30.48 65.48 30.61 65.48 30.73 65.48 30.86 65.48 30.99 65.49 31.12 65.49 31.25 65.49 31.37 65.5 31.5 65.5 31.63 65.51 31.76 65.52 31.89 65.52 32.02 65.53 32.14 65.54 32.27 65.55 32.4 65.56 32.53 65.57 32.66 65.58 32.79 65.6 32.91 65.61 33.04 65.62 33.17 65.64 33.3 65.65 33.43 65.67 33.56 65.68 33.68 65.7 33.81 65.72 33.94 65.74 34.07 65.75 34.2 65.77 34.32 65.79 34.45 65.81 34.58 65.83 34.71 65.86 34.84 65.88 34.97 65.9 35.09 65.92 35.22 65.94 35.35 65.97 35.48 65.99 35.61 66.01 35.74 66.04 35.86 66.06 35.99 66.09 36.12 66.11 36.25 66.14 36.38 66.16 36.51 66.19 36.63 66.21 36.76 66.24 36.89 66.26 37.02 66.29 37.15 66.32 37.27 66.34 37.4 66.37 37.53 66.39 37.66 66.42 37.79 66.45 37.92 66.47 38.04 66.5 38.17 66.52 38.3 66.55 38.43 66.58 38.56 66.6 38.69 66.63 38.81 66.65 38.94 66.68 39.07 66.71 39.2 66.73 39.33 66.76 39.46 66.78 39.58 66.8 39.71 66.83 39.84 66.85 39.97 66.88 40.1 66.9 40.22 66.92 40.35 66.95 40.48 66.97 40.61 66.99 40.74 67.01 40.87 67.03 40.99 67.05 41.12 67.08 41.25 67.1 41.38 67.12 41.51 67.13 41.64 67.15 41.76 67.17 41.89 67.19 42.02 67.21 42.15 67.23 42.28 67.24 42.41 67.26 42.53 67.28 42.66 67.29 42.79 67.31 42.92 67.32 43.05 67.33 43.17 67.35 43.3 67.36 43.43 67.37 43.56 67.39 43.69 67.4 43.82 67.41 43.94 67.42 44.07 67.43 44.2 67.44 44.33 67.45 44.46 67.46 44.59 67.47 44.71 67.48 44.84 67.48 44.97 67.49 45.1 67.5 45.23 67.5 45.36 67.51 45.48 67.52 45.61 67.52 45.74 67.53 45.87 67.53 46 67.53 46.12 67.54 46.25 67.54 46.38 67.54 46.51 67.55 46.64 67.55 46.77 67.55 46.89 67.55 47.02 67.55 47.15 67.56 47.28 67.56 47.41 67.56 47.54 67.56 47.66 67.56 47.79 67.56 47.92 67.56 48.05 67.56 48.18 67.56 48.31 67.56 48.43 67.56 48.56 67.56 48.69 67.56 48.82 67.56 48.95 67.56 49.07 67.56 49.2 67.56 49.33 67.56 49.46 67.56 49.59 67.56 49.72 67.56 49.84 67.56 49.97 67.56 50.1 67.56 50.23 67.56 50.36 67.56 50.49 67.57 50.61 67.57 50.74 67.57 50.87 67.57 51 67.58 51.13 67.58 51.26 67.58 51.38 67.59 51.51 67.59 51.64 67.6 51.77 67.6 51.9 67.61 52.02 67.61 52.15 67.62 52.28 67.63 52.41 67.64 52.54 67.65 52.67 67.66 52.79 67.67 52.92 67.68 53.05 67.69 53.18 67.7 53.31 67.72 53.44 67.73 53.56 67.75 53.69 67.76 53.82 67.78 53.95 67.8 54.08 67.82 54.21 67.84 54.33 67.86 54.46 67.88 54.59 67.91 54.72 67.93 54.85 67.96 54.97 67.98 55.1 68.01 55.23 68.04 55.36 68.07 55.49 68.1 55.62 68.14 55.74 68.17 55.87 68.21 56 68.24 56.13 68.28 56.26 68.32 56.39 68.36 56.51 68.41 56.64 68.45 56.77 68.5 56.9 68.54 57.03 68.59 57.16 68.64 57.28 68.69 57.41 68.75 57.54 68.8 57.67 68.86 57.8 68.92 57.93 68.98 58.05 69.04 58.18 69.11 58.31 69.17 58.44 69.24 58.57 69.31 58.69 69.38 58.82 69.45 58.95 69.53 59.08 69.61 59.21 69.69 59.34 69.77 59.46 69.85 59.59 69.93 59.72 70.02 59.85 70.11 59.98 70.2 60.11 70.3 60.23 70.39 60.36 70.49 60.49 70.59 60.62 70.69 60.75 70.79 60.88 70.9 61 71.01 61.13 71.12 61.26 71.23 61.39 71.35 61.52 71.47 61.64 71.59 61.77 71.71 61.9 71.83 62.03 71.96 62.16 72.09 62.29 72.22 62.41 72.35 62.54 72.49 62.67 72.63 62.8 72.77 62.93 72.91 63.06 73.06 63.18 73.21 63.31 73.36 63.44 73.51 63.57 73.66 63.7 73.82 63.83 73.98 63.95 74.15 64.08 74.31 64.21 74.48 64.34 74.65 64.47 74.82 64.59 74.99 64.72 75.17 64.85 75.35 64.98 75.53 65.11 75.72 65.24 75.9 65.36 76.09 65.49 76.28 65.62 76.48 65.75 76.67 65.88 76.87 66.01 77.07 66.13 77.27 66.26 77.48 66.39 77.69 66.52 77.89 66.65 78.11 66.78 78.32 66.9 78.54 67.03 78.75 67.16 78.97 67.29 79.19 67.42 79.42 67.54 79.64 67.67 79.87 67.8 80.1 67.93 80.33 68.06 80.57 68.19 80.8 68.31 81.04 68.44 81.28 68.57 81.52 68.7 81.76 68.83 82 68.96 82.25 69.08 82.49 69.21 82.74 69.34 82.99 69.47 83.24 69.6 83.49 69.73 83.74 69.85 84 69.98 84.25 70.11 84.51 70.24 84.76 70.37 85.02 70.49 85.28 70.62 85.54 70.75 85.8 70.88 86.06 71.01 86.32 71.14 86.58 71.26 86.84 71.39 87.1 71.52 87.37 71.65 87.63 71.78 87.89 71.91 88.15 72.03 88.41 72.16 88.68 72.29 88.94 72.42 89.2 72.55 89.46 72.68 89.72 72.8 89.98 72.93 90.24 73.06 90.5 73.19 90.75 73.32 91.01 73.44 91.27 73.57 91.52 73.7 91.77 73.83 92.02 73.96 92.27 74.09 92.52 74.21 92.77 74.34 93.02 74.47 93.26 74.6 93.5 74.73 93.74 74.86 93.98 74.98 94.22 75.11 94.45 75.24 94.68 75.37 94.91 75.5 95.14 75.63 95.36 75.75 95.58 75.88 95.8 76.01 96.01 76.14 96.23 76.27 96.44 76.39 96.64 76.52 96.85 76.65 97.05 76.78 97.24 76.91 97.44 77.04 97.63 77.16 97.81 77.29 97.99 77.42 98.17 77.55 98.35 77.68 98.52 77.81 98.69 77.93 98.85 78.06 99.01 78.19 99.16 78.32 99.31 78.45 99.46 78.58 99.6 78.7 99.74 78.83 99.87 78.96 100 79.09 100.12 79.22 100.24 79.34 100.36 79.47 100.46 79.6 100.57 79.73 100.67 79.86 100.76 79.99 100.85 80.11 100.94 80.24 101.02 80.37 101.09 80.5 101.16 80.63 101.23 80.76 101.28 80.88 101.34 81.01 101.39 81.14 101.43 81.27 101.47 81.4 101.5 81.53 101.53 81.65 101.55 81.78 101.57 81.91 101.58 82.04 101.58 82.17 101.58 82.29 101.58 82.42 101.57 82.55 101.55 82.68 101.53 82.81 101.5 82.94 101.47 83.06 101.43 83.19 101.39 83.32 101.34 83.45 101.29 83.58 101.23 83.71 101.16 83.83 101.09 83.96 101.02 84.09 100.93 84.22 100.85 84.35 100.76 84.48 100.66 84.6 100.56 84.73 100.45 84.86 100.34 84.99 100.22 85.12 100.1 85.24 99.97 85.37 99.84 85.5 99.7 85.63 99.56 85.76 99.41 85.89 99.26 86.01 99.1 86.14 98.94 86.27 98.77 86.4 98.6 86.53 98.43 86.66 98.25 86.78 98.06 86.91 97.87 87.04 97.68 87.17 97.48 87.3 97.28 87.43 97.07 87.55 96.86 87.68 96.64 87.81 96.42 87.94 96.2 88.07 95.97 88.19 95.74 88.32 95.5 88.45 95.27 88.58 95.02 88.71 94.77 88.84 94.52 88.96 94.27 89.09 94.01 89.22 93.75 89.35 93.48 89.48 93.22 89.61 92.94 89.73 92.67 89.86 92.39 89.99 92.11 90.12 91.82 90.25 91.54 90.38 91.25 90.5 90.95 90.63 90.66 90.76 90.36 90.89 90.05 91.02 89.75 91.14 89.44 91.27 89.13 91.4 88.82 91.53 88.5 91.66 88.18 91.79 87.86 91.91 87.54 92.04 87.21 92.17 86.88 92.3 86.55 92.43 86.22 92.56 85.89 92.68 85.55 92.81 85.21 92.94 84.87 93.07 84.53 93.2 84.18 93.33 83.83 93.45 83.49 93.58 83.14 93.71 82.78 93.84 82.43 93.97 82.07 94.1 81.71 94.22 81.36 94.35 80.99 94.48 80.63 94.61 80.27 94.74 79.9 94.86 79.53 94.99 79.17 95.12 78.8 95.25 78.42 95.38 78.05 95.51 77.68 95.63 77.3 95.76 76.92 95.89 76.55 96.02 76.17 96.15 75.79 96.28 75.4 96.4 75.02 96.53 74.64 96.66 74.25 96.79 73.86 96.92 73.48 97.05 73.09 97.17 72.7 97.3 72.31 97.43 71.92 97.56 71.52 97.69 71.13 97.81 70.74 97.94 70.34 98.07 69.94 98.2 69.55 98.33 69.15 98.46 68.75 98.58 68.35 98.71 67.95 98.84 67.55 98.97 67.15 99.1 66.74 99.23 66.34 99.35 65.94 99.48 65.53 99.61 65.13 99.74 64.72 99.87 64.31 100 63.91 100.12 63.5 100.25 63.09 100.38 62.68 100.51 62.27 100.64 61.86 100.76 61.45 100.89 61.04 101.02 60.63 101.15 60.21 101.28 59.8 101.41 59.39 101.53 58.98 101.66 58.56 101.79 58.15 101.92 57.73 102.05 57.32 102.18 56.9 102.3 56.49 102.43 56.07 102.56 55.66 102.69 55.24 102.82 54.82 102.95 54.41 103.07 53.99 103.2 53.57 103.33 53.16 103.46 52.74 103.59 52.32 103.71 51.91 103.84 51.49 103.97 51.07 104.1 50.66 104.23 50.24 104.36 49.83 104.48 49.41 104.61 48.99 104.74 48.58 104.87 48.17 105 47.75 105.13 47.34 105.25 46.92 105.38 46.51 105.51 46.1 105.64 45.69 105.77 45.28 105.9 44.87 106.02 44.46 106.15 44.05 106.28 43.64 106.41 43.23 106.54 42.83 106.66 42.42 106.79 42.02 106.92 41.61 107.05 41.21 107.18 40.81 107.31 40.41 107.43 40.02 107.56 39.62 107.69 39.22 107.82 38.83 107.95 38.44 108.08 38.05 108.2 37.66 108.33 37.28 108.46 36.89 108.59 36.51 108.72 36.13 108.85 35.75 108.97 35.38 109.1 35 109.23 34.63 109.36 34.26 109.49 33.9 109.61 33.53 109.74 33.17 109.87 32.81 110 32.46 110.13 32.11 110.26 31.76 110.38 31.41 110.51 31.07 110.64 30.73 110.77 30.39 110.9 30.06 111.03 29.73 111.15 29.41 111.28 29.09 111.41 28.77 111.54 28.45 111.67 28.14 111.8 27.84 111.92 27.54 112.05 27.24 112.18 26.95 112.31 26.66 112.44 26.38 112.56 26.1 112.69 25.82 112.82 25.55 112.95 25.29 113.08 25.03 113.21 24.77 113.33 24.52 113.46 24.28 113.59 24.04 113.72 23.81 113.85 23.58 113.98 23.36 114.1 23.14 114.23 22.93 114.36 22.73 114.49 22.53 114.62 22.34 114.75 22.15 114.87 21.97 115 21.8 115.13 21.63 115.26 21.47 115.39 21.32 115.51 21.17 115.64 21.03 115.77 20.89 115.9 20.77 116.03 20.64 116.16 20.53 116.28 20.42 116.41 20.32 116.54 20.23 116.67 20.15 116.8 20.07 116.93 20 117.05 19.93 117.18 19.87 117.31 19.82 117.44 19.78 117.57 19.75 117.7 19.72 117.82 19.7 117.95 19.69 118.08 19.68 118.21 19.68 118.34 19.69 118.46 19.71 118.59 19.74 118.72 19.77 118.85 19.81 118.98 19.86 119.11 19.91 119.23 19.97 119.36 20.04 119.49 20.12 119.62 20.2 119.75 20.3 119.88 20.4 120 20.5 120.13 20.62 120.26 20.74 120.39 20.87 120.52 21.01 120.65 21.15 120.77 21.3 120.9 21.46 121.03 21.62 121.16 21.79 121.29 21.97 121.41 22.16 121.54 22.35 121.67 22.55 121.8 22.75 121.93 22.96 122.06 23.18 122.18 23.41 122.31 23.64 122.44 23.88 122.57 24.12 122.7 24.37 122.83 24.62 122.95 24.88 123.08 25.15 123.21 25.42 123.34 25.7 123.47 25.99 123.6 26.27 123.72 26.57 123.85 26.87 123.98 27.17 124.11 27.48 124.24 27.79 124.36 28.11 124.49 28.43 124.62 28.76 124.75 29.09 124.88 29.43 125.01 29.76 125.13 30.11 125.26 30.45 125.39 30.8 125.52 31.16 125.65 31.51 125.78 31.87 125.9 32.24 126.03 32.6 126.16 32.97 126.29 33.34 126.42 33.71 126.55 34.09 126.67 34.47 126.8 34.85 126.93 35.23 127.06 35.61 127.19 36 127.31 36.39 127.44 36.77 127.57 37.16 127.7 37.55 127.83 37.94 127.96 38.34 128.08 38.73 128.21 39.12 128.34 39.52 128.47 39.91 128.6 40.3 128.73 40.7 128.85 41.09 128.98 41.49 129.11 41.88 129.24 42.27 129.37 42.67 129.5 43.06 129.62 43.45 129.75 43.84 129.88 44.23 130.01 44.62 130.14 45 130.27 45.39 130.39 45.77 130.52 46.15 130.65 46.53 130.78 46.91 130.91 47.29 131.03 47.66 131.16 48.04 131.29 48.41 131.42 48.77 131.55 49.14 131.68 49.5 131.8 49.87 131.93 50.22 132.06 50.58 132.19 50.93 132.32 51.28 132.45 51.63 132.57 51.97 132.7 52.32 132.83 52.65 132.96 52.99 133.09 53.32 133.22 53.65 133.34 53.98 133.47 54.3 133.6 54.62 133.73 54.93 133.86 55.25 133.98 55.55 134.11 55.86 134.24 56.16 134.37 56.46 134.5 56.75 134.63 57.05 134.75 57.33 134.88 57.62 135.01 57.9 135.14 58.17 135.27 58.44 135.4 58.71 135.52 58.98 135.65 59.24 135.78 59.5 135.91 59.75 136.04 60 136.17 60.25 136.29 60.49 136.42 60.73 136.55 60.96 136.68 61.19 136.81 61.42 136.93 61.64 137.06 61.86 137.19 62.08 137.32 62.29 137.45 62.5 137.58 62.71 137.7 62.91 137.83 63.11 137.96 63.3 138.09 63.49 138.22 63.68 138.35 63.86 138.47 64.04 138.6 64.22 138.73 64.39 138.86 64.56 138.99 64.73 139.12 64.89 139.24 65.05 139.37 65.21 139.5 65.36 139.63 65.51 139.76 65.66 139.88 65.8 140.01 65.94 140.14 66.08 140.27 66.21 140.4 66.34 140.53 66.47 140.65 66.6 140.78 66.72 140.91 66.84 141.04 66.96 141.17 67.07 141.3 67.18 141.42 67.29 141.55 67.4 141.68 67.5 141.81 67.61 141.94 67.7 142.07 67.8 142.19 67.89 142.32 67.99 142.45 68.08 142.58 68.16 142.71 68.25 142.83 68.33 142.96 68.41 143.09 68.49 143.22 68.56 143.35 68.64 143.48 68.71 143.6 68.78 143.73 68.85 143.86 68.92 143.99 68.98 144.12 69.04 144.25 69.1 144.37 69.16 144.5 69.22 144.63 69.28 144.76 69.33 144.89 69.38 145.02 69.43 145.14 69.48 145.27 69.53 145.4 69.58"/>
      </g>
      <g stroke-width="0.3" fill="none" class="geometry" stroke="#800080" id="fig-f54ef5151e5b4c5bb28581b3507cc6ea-element-12">
        <path d="M17.27,70.86 L 17.39 70.86 17.52 70.86 17.65 70.86 17.78 70.85 17.91 70.85 18.04 70.84 18.16 70.83 18.29 70.82 18.42 70.81 18.55 70.8 18.68 70.79 18.8 70.77 18.93 70.76 19.06 70.74 19.19 70.72 19.32 70.7 19.45 70.68 19.57 70.66 19.7 70.63 19.83 70.61 19.96 70.58 20.09 70.56 20.22 70.53 20.34 70.5 20.47 70.47 20.6 70.44 20.73 70.4 20.86 70.37 20.99 70.33 21.11 70.3 21.24 70.26 21.37 70.22 21.5 70.18 21.63 70.14 21.76 70.1 21.88 70.05 22.01 70.01 22.14 69.96 22.27 69.92 22.4 69.87 22.52 69.82 22.65 69.77 22.78 69.72 22.91 69.66 23.04 69.61 23.17 69.56 23.29 69.5 23.42 69.45 23.55 69.39 23.68 69.33 23.81 69.27 23.94 69.21 24.06 69.15 24.19 69.09 24.32 69.02 24.45 68.96 24.58 68.9 24.71 68.83 24.83 68.76 24.96 68.7 25.09 68.63 25.22 68.56 25.35 68.49 25.47 68.42 25.6 68.35 25.73 68.28 25.86 68.2 25.99 68.13 26.12 68.05 26.24 67.98 26.37 67.9 26.5 67.83 26.63 67.75 26.76 67.67 26.89 67.59 27.01 67.51 27.14 67.43 27.27 67.35 27.4 67.27 27.53 67.19 27.66 67.11 27.78 67.03 27.91 66.95 28.04 66.86 28.17 66.78 28.3 66.69 28.42 66.61 28.55 66.53 28.68 66.44 28.81 66.35 28.94 66.27 29.07 66.18 29.19 66.09 29.32 66.01 29.45 65.92 29.58 65.83 29.71 65.75 29.84 65.66 29.96 65.57 30.09 65.48 30.22 65.39 30.35 65.3 30.48 65.22 30.61 65.13 30.73 65.04 30.86 64.95 30.99 64.86 31.12 64.77 31.25 64.68 31.37 64.59 31.5 64.5 31.63 64.42 31.76 64.33 31.89 64.24 32.02 64.15 32.14 64.06 32.27 63.97 32.4 63.89 32.53 63.8 32.66 63.71 32.79 63.62 32.91 63.54 33.04 63.45 33.17 63.36 33.3 63.28 33.43 63.19 33.56 63.11 33.68 63.02 33.81 62.94 33.94 62.85 34.07 62.77 34.2 62.69 34.32 62.6 34.45 62.52 34.58 62.44 34.71 62.36 34.84 62.28 34.97 62.2 35.09 62.12 35.22 62.04 35.35 61.96 35.48 61.89 35.61 61.81 35.74 61.74 35.86 61.66 35.99 61.59 36.12 61.51 36.25 61.44 36.38 61.37 36.51 61.3 36.63 61.23 36.76 61.16 36.89 61.09 37.02 61.02 37.15 60.96 37.27 60.89 37.4 60.83 37.53 60.76 37.66 60.7 37.79 60.64 37.92 60.58 38.04 60.52 38.17 60.46 38.3 60.41 38.43 60.35 38.56 60.3 38.69 60.24 38.81 60.19 38.94 60.14 39.07 60.09 39.2 60.04 39.33 59.99 39.46 59.95 39.58 59.9 39.71 59.86 39.84 59.82 39.97 59.78 40.1 59.74 40.22 59.7 40.35 59.66 40.48 59.63 40.61 59.59 40.74 59.56 40.87 59.53 40.99 59.5 41.12 59.47 41.25 59.45 41.38 59.42 41.51 59.4 41.64 59.38 41.76 59.36 41.89 59.34 42.02 59.32 42.15 59.31 42.28 59.29 42.41 59.28 42.53 59.27 42.66 59.26 42.79 59.25 42.92 59.25 43.05 59.25 43.17 59.24 43.3 59.24 43.43 59.24 43.56 59.25 43.69 59.25 43.82 59.26 43.94 59.27 44.07 59.28 44.2 59.29 44.33 59.3 44.46 59.32 44.59 59.34 44.71 59.36 44.84 59.38 44.97 59.4 45.1 59.43 45.23 59.45 45.36 59.48 45.48 59.51 45.61 59.54 45.74 59.58 45.87 59.61 46 59.65 46.12 59.69 46.25 59.73 46.38 59.78 46.51 59.82 46.64 59.87 46.77 59.92 46.89 59.97 47.02 60.03 47.15 60.08 47.28 60.14 47.41 60.2 47.54 60.26 47.66 60.33 47.79 60.39 47.92 60.46 48.05 60.53 48.18 60.6 48.31 60.67 48.43 60.75 48.56 60.83 48.69 60.9 48.82 60.99 48.95 61.07 49.07 61.15 49.2 61.24 49.33 61.33 49.46 61.42 49.59 61.52 49.72 61.61 49.84 61.71 49.97 61.81 50.1 61.91 50.23 62.01 50.36 62.12 50.49 62.22 50.61 62.33 50.74 62.44 50.87 62.56 51 62.67 51.13 62.79 51.26 62.91 51.38 63.03 51.51 63.15 51.64 63.27 51.77 63.4 51.9 63.53 52.02 63.66 52.15 63.79 52.28 63.93 52.41 64.06 52.54 64.2 52.67 64.34 52.79 64.48 52.92 64.62 53.05 64.77 53.18 64.92 53.31 65.06 53.44 65.21 53.56 65.37 53.69 65.52 53.82 65.68 53.95 65.83 54.08 65.99 54.21 66.15 54.33 66.32 54.46 66.48 54.59 66.65 54.72 66.81 54.85 66.98 54.97 67.16 55.1 67.33 55.23 67.5 55.36 67.68 55.49 67.86 55.62 68.03 55.74 68.21 55.87 68.4 56 68.58 56.13 68.77 56.26 68.95 56.39 69.14 56.51 69.33 56.64 69.52 56.77 69.71 56.9 69.91 57.03 70.1 57.16 70.3 57.28 70.5 57.41 70.69 57.54 70.9 57.67 71.1 57.8 71.3 57.93 71.5 58.05 71.71 58.18 71.92 58.31 72.12 58.44 72.33 58.57 72.54 58.69 72.75 58.82 72.97 58.95 73.18 59.08 73.39 59.21 73.61 59.34 73.83 59.46 74.04 59.59 74.26 59.72 74.48 59.85 74.7 59.98 74.92 60.11 75.14 60.23 75.37 60.36 75.59 60.49 75.81 60.62 76.04 60.75 76.26 60.88 76.49 61 76.72 61.13 76.94 61.26 77.17 61.39 77.4 61.52 77.63 61.64 77.86 61.77 78.09 61.9 78.32 62.03 78.55 62.16 78.79 62.29 79.02 62.41 79.25 62.54 79.48 62.67 79.72 62.8 79.95 62.93 80.19 63.06 80.42 63.18 80.65 63.31 80.89 63.44 81.12 63.57 81.36 63.7 81.59 63.83 81.83 63.95 82.06 64.08 82.3 64.21 82.53 64.34 82.77 64.47 83 64.59 83.24 64.72 83.47 64.85 83.71 64.98 83.94 65.11 84.17 65.24 84.41 65.36 84.64 65.49 84.87 65.62 85.11 65.75 85.34 65.88 85.57 66.01 85.8 66.13 86.03 66.26 86.26 66.39 86.49 66.52 86.72 66.65 86.95 66.78 87.18 66.9 87.4 67.03 87.63 67.16 87.86 67.29 88.08 67.42 88.31 67.54 88.53 67.67 88.75 67.8 88.97 67.93 89.19 68.06 89.41 68.19 89.63 68.31 89.85 68.44 90.07 68.57 90.28 68.7 90.5 68.83 90.71 68.96 90.92 69.08 91.13 69.21 91.34 69.34 91.55 69.47 91.76 69.6 91.97 69.73 92.17 69.85 92.37 69.98 92.57 70.11 92.78 70.24 92.97 70.37 93.17 70.49 93.37 70.62 93.56 70.75 93.75 70.88 93.94 71.01 94.13 71.14 94.32 71.26 94.51 71.39 94.69 71.52 94.87 71.65 95.05 71.78 95.23 71.91 95.41 72.03 95.58 72.16 95.76 72.29 95.93 72.42 96.1 72.55 96.26 72.68 96.43 72.8 96.59 72.93 96.75 73.06 96.91 73.19 97.07 73.32 97.22 73.44 97.37 73.57 97.52 73.7 97.67 73.83 97.81 73.96 97.96 74.09 98.1 74.21 98.24 74.34 98.37 74.47 98.5 74.6 98.64 74.73 98.76 74.86 98.89 74.98 99.01 75.11 99.13 75.24 99.25 75.37 99.37 75.5 99.48 75.63 99.59 75.75 99.7 75.88 99.8 76.01 99.9 76.14 100 76.27 100.1 76.39 100.19 76.52 100.29 76.65 100.37 76.78 100.46 76.91 100.54 77.04 100.62 77.16 100.7 77.29 100.77 77.42 100.84 77.55 100.91 77.68 100.97 77.81 101.04 77.93 101.09 78.06 101.15 78.19 101.2 78.32 101.25 78.45 101.3 78.58 101.34 78.7 101.38 78.83 101.42 78.96 101.45 79.09 101.48 79.22 101.51 79.34 101.53 79.47 101.56 79.6 101.57 79.73 101.59 79.86 101.6 79.99 101.61 80.11 101.61 80.24 101.61 80.37 101.61 80.5 101.6 80.63 101.59 80.76 101.58 80.88 101.57 81.01 101.55 81.14 101.52 81.27 101.5 81.4 101.47 81.53 101.44 81.65 101.4 81.78 101.36 81.91 101.32 82.04 101.27 82.17 101.22 82.29 101.17 82.42 101.11 82.55 101.05 82.68 100.99 82.81 100.92 82.94 100.85 83.06 100.77 83.19 100.69 83.32 100.61 83.45 100.53 83.58 100.44 83.71 100.35 83.83 100.25 83.96 100.15 84.09 100.05 84.22 99.94 84.35 99.83 84.48 99.72 84.6 99.6 84.73 99.48 84.86 99.36 84.99 99.23 85.12 99.1 85.24 98.96 85.37 98.82 85.5 98.68 85.63 98.54 85.76 98.39 85.89 98.24 86.01 98.08 86.14 97.92 86.27 97.76 86.4 97.59 86.53 97.42 86.66 97.25 86.78 97.07 86.91 96.89 87.04 96.71 87.17 96.52 87.3 96.33 87.43 96.14 87.55 95.94 87.68 95.74 87.81 95.53 87.94 95.33 88.07 95.12 88.19 94.9 88.32 94.68 88.45 94.46 88.58 94.24 88.71 94.01 88.84 93.78 88.96 93.54 89.09 93.31 89.22 93.07 89.35 92.82 89.48 92.58 89.61 92.33 89.73 92.07 89.86 91.81 89.99 91.55 90.12 91.29 90.25 91.03 90.38 90.76 90.5 90.48 90.63 90.21 90.76 89.93 90.89 89.65 91.02 89.37 91.14 89.08 91.27 88.79 91.4 88.49 91.53 88.2 91.66 87.9 91.79 87.6 91.91 87.29 92.04 86.99 92.17 86.68 92.3 86.36 92.43 86.05 92.56 85.73 92.68 85.41 92.81 85.09 92.94 84.76 93.07 84.43 93.2 84.1 93.33 83.77 93.45 83.43 93.58 83.09 93.71 82.75 93.84 82.41 93.97 82.06 94.1 81.71 94.22 81.36 94.35 81.01 94.48 80.65 94.61 80.29 94.74 79.94 94.86 79.57 94.99 79.21 95.12 78.84 95.25 78.48 95.38 78.11 95.51 77.73 95.63 77.36 95.76 76.98 95.89 76.61 96.02 76.23 96.15 75.84 96.28 75.46 96.4 75.08 96.53 74.69 96.66 74.3 96.79 73.91 96.92 73.52 97.05 73.13 97.17 72.73 97.3 72.34 97.43 71.94 97.56 71.54 97.69 71.14 97.81 70.74 97.94 70.34 98.07 69.93 98.2 69.53 98.33 69.12 98.46 68.71 98.58 68.31 98.71 67.9 98.84 67.49 98.97 67.07 99.1 66.66 99.23 66.25 99.35 65.84 99.48 65.42 99.61 65.01 99.74 64.59 99.87 64.17 100 63.76 100.12 63.34 100.25 62.92 100.38 62.5 100.51 62.08 100.64 61.66 100.76 61.24 100.89 60.82 101.02 60.4 101.15 59.98 101.28 59.56 101.41 59.14 101.53 58.72 101.66 58.3 101.79 57.88 101.92 57.45 102.05 57.03 102.18 56.61 102.3 56.19 102.43 55.77 102.56 55.35 102.69 54.93 102.82 54.52 102.95 54.1 103.07 53.68 103.2 53.26 103.33 52.84 103.46 52.43 103.59 52.01 103.71 51.6 103.84 51.18 103.97 50.77 104.1 50.36 104.23 49.95 104.36 49.54 104.48 49.13 104.61 48.72 104.74 48.31 104.87 47.91 105 47.5 105.13 47.1 105.25 46.7 105.38 46.3 105.51 45.9 105.64 45.5 105.77 45.1 105.9 44.71 106.02 44.31 106.15 43.92 106.28 43.53 106.41 43.14 106.54 42.76 106.66 42.37 106.79 41.99 106.92 41.61 107.05 41.23 107.18 40.85 107.31 40.48 107.43 40.1 107.56 39.73 107.69 39.36 107.82 39 107.95 38.63 108.08 38.27 108.2 37.91 108.33 37.56 108.46 37.2 108.59 36.85 108.72 36.5 108.85 36.15 108.97 35.81 109.1 35.47 109.23 35.13 109.36 34.8 109.49 34.46 109.61 34.13 109.74 33.8 109.87 33.48 110 33.16 110.13 32.84 110.26 32.53 110.38 32.21 110.51 31.91 110.64 31.6 110.77 31.3 110.9 31 111.03 30.7 111.15 30.41 111.28 30.12 111.41 29.84 111.54 29.55 111.67 29.27 111.8 29 111.92 28.73 112.05 28.46 112.18 28.2 112.31 27.94 112.44 27.68 112.56 27.43 112.69 27.18 112.82 26.93 112.95 26.69 113.08 26.45 113.21 26.22 113.33 25.99 113.46 25.77 113.59 25.55 113.72 25.33 113.85 25.12 113.98 24.91 114.1 24.7 114.23 24.5 114.36 24.31 114.49 24.12 114.62 23.93 114.75 23.75 114.87 23.57 115 23.39 115.13 23.22 115.26 23.06 115.39 22.9 115.51 22.74 115.64 22.59 115.77 22.44 115.9 22.3 116.03 22.17 116.16 22.03 116.28 21.9 116.41 21.78 116.54 21.66 116.67 21.55 116.8 21.44 116.93 21.34 117.05 21.24 117.18 21.14 117.31 21.05 117.44 20.97 117.57 20.89 117.7 20.81 117.82 20.75 117.95 20.68 118.08 20.62 118.21 20.57 118.34 20.52 118.46 20.47 118.59 20.43 118.72 20.4 118.85 20.37 118.98 20.35 119.11 20.33 119.23 20.32 119.36 20.31 119.49 20.3 119.62 20.31 119.75 20.31 119.88 20.33 120 20.35 120.13 20.37 120.26 20.4 120.39 20.43 120.52 20.47 120.65 20.51 120.77 20.56 120.9 20.62 121.03 20.68 121.16 20.75 121.29 20.82 121.41 20.89 121.54 20.97 121.67 21.06 121.8 21.15 121.93 21.25 122.06 21.36 122.18 21.46 122.31 21.58 122.44 21.7 122.57 21.82 122.7 21.95 122.83 22.09 122.95 22.23 123.08 22.38 123.21 22.53 123.34 22.68 123.47 22.85 123.6 23.01 123.72 23.19 123.85 23.36 123.98 23.55 124.11 23.74 124.24 23.93 124.36 24.13 124.49 24.34 124.62 24.55 124.75 24.76 124.88 24.98 125.01 25.21 125.13 25.44 125.26 25.68 125.39 25.92 125.52 26.17 125.65 26.42 125.78 26.67 125.9 26.94 126.03 27.2 126.16 27.48 126.29 27.76 126.42 28.04 126.55 28.33 126.67 28.62 126.8 28.92 126.93 29.22 127.06 29.53 127.19 29.84 127.31 30.16 127.44 30.48 127.57 30.81 127.7 31.14 127.83 31.48 127.96 31.82 128.08 32.17 128.21 32.52 128.34 32.88 128.47 33.24 128.6 33.61 128.73 33.98 128.85 34.36 128.98 34.74 129.11 35.12 129.24 35.51 129.37 35.9 129.5 36.3 129.62 36.71 129.75 37.11 129.88 37.53 130.01 37.94 130.14 38.36 130.27 38.79 130.39 39.22 130.52 39.65 130.65 40.09 130.78 40.53 130.91 40.97 131.03 41.42 131.16 41.88 131.29 42.34 131.42 42.8 131.55 43.26 131.68 43.73 131.8 44.21 131.93 44.68 132.06 45.17 132.19 45.65 132.32 46.14 132.45 46.63 132.57 47.13 132.7 47.63 132.83 48.13 132.96 48.64 133.09 49.14 133.22 49.66 133.34 50.17 133.47 50.69 133.6 51.22 133.73 51.74 133.86 52.27 133.98 52.8 134.11 53.34 134.24 53.88 134.37 54.42 134.5 54.96 134.63 55.51 134.75 56.06 134.88 56.61 135.01 57.17 135.14 57.72 135.27 58.28 135.4 58.85 135.52 59.41 135.65 59.98 135.78 60.55 135.91 61.12 136.04 61.7 136.17 62.27 136.29 62.85 136.42 63.43 136.55 64.01 136.68 64.6 136.81 65.19 136.93 65.77 137.06 66.36 137.19 66.96 137.32 67.55 137.45 68.15 137.58 68.74 137.7 69.34 137.83 69.94 137.96 70.54 138.09 71.14 138.22 71.75 138.35 72.35 138.47 72.96 138.6 73.57 138.73 74.17 138.86 74.78 138.99 75.39 139.12 76 139.24 76.62 139.37 77.23 139.5 77.84 139.63 78.45 139.76 79.07 139.88 79.68 140.01 80.3 140.14 80.91 140.27 81.53 140.4 82.14 140.53 82.76 140.65 83.37 140.78 83.99 140.91 84.61 141.04 85.22 141.17 85.84 141.3 86.45 141.42 87.07 141.55 87.68 141.68 88.29 141.81 88.91 141.94 89.52 142.07 90.13 142.19 90.74 142.32 91.36 142.45 91.97 142.58 92.57 142.71 93.18 142.83 93.79 142.96 94.39 143.09 95 143.22 95.6 143.35 96.2 143.48 96.81 143.6 97.4 143.73 98 143.86 98.6 143.99 99.19 144.12 99.79 144.25 100.38 144.37 100.97 144.5 101.55 144.63 102.14 144.76 102.72 144.89 103.3 145.02 103.88 145.14 104.46 145.27 105.04 145.4 105.61"/>
      </g>
      <g class="geometry" id="fig-f54ef5151e5b4c5bb28581b3507cc6ea-element-13">
        <g class="color_RGB(0.5019607843137255,0.0,0.5019607843137255)" stroke="#FFFFFF" stroke-width="0.3" fill="#800080" id="fig-f54ef5151e5b4c5bb28581b3507cc6ea-element-14">
          <circle cx="30.08" cy="65.49" r="0.9"/>
          <circle cx="55.71" cy="68.16" r="0.9"/>
          <circle cx="81.33" cy="101.48" r="0.9"/>
          <circle cx="94.15" cy="81.57" r="0.9"/>
          <circle cx="106.96" cy="41.49" r="0.9"/>
          <circle cx="119.77" cy="20.32" r="0.9"/>
        </g>
      </g>
    </g>
  </g>
  <g class="guide ylabels" font-size="2.82" font-family="'PT Sans Caption','Helvetica Neue','Helvetica',sans-serif" fill="#6C606B" id="fig-f54ef5151e5b4c5bb28581b3507cc6ea-element-15">
    <text x="14.27" y="134.73" text-anchor="end" dy="0.35em">-10</text>
    <text x="14.27" y="102.8" text-anchor="end" dy="0.35em">-5</text>
    <text x="14.27" y="70.86" text-anchor="end" dy="0.35em">0</text>
    <text x="14.27" y="38.93" text-anchor="end" dy="0.35em">5</text>
    <text x="14.27" y="7" text-anchor="end" dy="0.35em">10</text>
  </g>
  <g font-size="3.88" font-family="'PT Sans','Helvetica Neue','Helvetica',sans-serif" fill="#564A55" stroke="none" id="fig-f54ef5151e5b4c5bb28581b3507cc6ea-element-16">
    <text x="8.81" y="70.86" text-anchor="end" dy="0.35em">y</text>
  </g>
</g>
<defs>
<clipPath id="fig-f54ef5151e5b4c5bb28581b3507cc6ea-element-5">
  <path d="M15.27,5 L 147.4 5 147.4 136.73 15.27 136.73" />
</clipPath
></defs>
</svg>
