<?xml version="1.0" encoding="UTF-8"?>
<svg xmlns="http://www.w3.org/2000/svg"
     xmlns:xlink="http://www.w3.org/1999/xlink"
     xmlns:gadfly="http://www.gadflyjl.org/ns"
     version="1.2"
     width="152.4mm" height="152.4mm" viewBox="0 0 152.4 152.4"
     stroke="none"
     fill="#000000"
     stroke-width="0.3"
>
<g class="plotroot xscalable yscalable" id="fig-9d3648133b0b4785bb735f47a7f5bb3a-element-1">
  <g font-size="3.88" font-family="'PT Sans','Helvetica Neue','Helvetica',sans-serif" fill="#564A55" stroke="none" id="fig-9d3648133b0b4785bb735f47a7f5bb3a-element-2">
    <text x="81.33" y="142.4" text-anchor="end" dy="0.35em" transform="rotate(-90, 81.33, 142.4)">x</text>
  </g>
  <g class="guide xlabels" font-size="2.82" font-family="'PT Sans Caption','Helvetica Neue','Helvetica',sans-serif" fill="#6C606B" id="fig-9d3648133b0b4785bb735f47a7f5bb3a-element-3">
    <text x="17.27" y="140.4" text-anchor="middle">0</text>
    <text x="81.33" y="140.4" text-anchor="middle">5</text>
    <text x="145.4" y="140.4" text-anchor="middle">10</text>
  </g>
  <g clip-path="url(#fig-9d3648133b0b4785bb735f47a7f5bb3a-element-5)" id="fig-9d3648133b0b4785bb735f47a7f5bb3a-element-4">
    <g pointer-events="visible" opacity="1" fill="none" stroke="none" class="guide background" id="fig-9d3648133b0b4785bb735f47a7f5bb3a-element-6">
      <rect x="15.27" y="5" width="132.13" height="131.73"/>
    </g>
    <g class="guide ygridlines xfixed" stroke-dasharray="0.5,0.5" stroke-width="0.2" stroke="#D0D0E0" id="fig-9d3648133b0b4785bb735f47a7f5bb3a-element-7">
      <path d="M15.27,134.73 L 147.4 134.73"/>
      <path d="M15.27,102.8 L 147.4 102.8"/>
      <path d="M15.27,70.86 L 147.4 70.86"/>
      <path d="M15.27,38.93 L 147.4 38.93"/>
      <path d="M15.27,7 L 147.4 7"/>
    </g>
    <g class="guide xgridlines yfixed" stroke-dasharray="0.5,0.5" stroke-width="0.2" stroke="#D0D0E0" id="fig-9d3648133b0b4785bb735f47a7f5bb3a-element-8">
      <path d="M17.27,5 L 17.27 136.73"/>
      <path d="M81.33,5 L 81.33 136.73"/>
      <path d="M145.4,5 L 145.4 136.73"/>
    </g>
    <g class="plotpanel" id="fig-9d3648133b0b4785bb735f47a7f5bb3a-element-9">
      <g stroke-width="0.3" stroke="none" class="geometry" fill="#B9EAFF" id="fig-9d3648133b0b4785bb735f47a7f5bb3a-element-10">
        <path d="M145.4,87.28 L 145.27 87.06 145.14 86.84 145.02 86.62 144.89 86.4 144.76 86.17 144.63 85.93 144.5 85.7 144.37 85.45 144.25 85.21 144.12 84.96 143.99 84.71 143.86 84.45 143.73 84.19 143.6 83.93 143.48 83.66 143.35 83.39 143.22 83.12 143.09 82.84 142.96 82.56 142.83 82.28 142.71 81.99 142.58 81.7 142.45 81.4 142.32 81.1 142.19 80.8 142.07 80.5 141.94 80.19 141.81 79.88 141.68 79.56 141.55 79.24 141.42 78.92 141.3 78.6 141.17 78.27 141.04 77.94 140.91 77.61 140.78 77.27 140.65 76.94 140.53 76.59 140.4 76.25 140.27 75.9 140.14 75.55 140.01 75.2 139.88 74.85 139.76 74.49 139.63 74.13 139.5 73.77 139.37 73.4 139.24 73.04 139.12 72.67 138.99 72.29 138.86 71.92 138.73 71.54 138.6 71.17 138.47 70.79 138.35 70.4 138.22 70.02 138.09 69.63 137.96 69.25 137.83 68.86 137.7 68.47 137.58 68.07 137.45 67.68 137.32 67.28 137.19 66.89 137.06 66.49 136.93 66.09 136.81 65.69 136.68 65.29 136.55 64.88 136.42 64.48 136.29 64.07 136.17 63.67 136.04 63.26 135.91 62.85 135.78 62.44 135.65 62.04 135.52 61.63 135.4 61.22 135.27 60.81 135.14 60.4 135.01 59.98 134.88 59.57 134.75 59.16 134.63 58.75 134.5 58.34 134.37 57.93 134.24 57.52 134.11 57.11 133.98 56.7 133.86 56.29 133.73 55.88 133.6 55.48 133.47 55.07 133.34 54.66 133.22 54.26 133.09 53.85 132.96 53.45 132.83 53.05 132.7 52.65 132.57 52.25 132.45 51.85 132.32 51.45 132.19 51.06 132.06 50.66 131.93 50.27 131.8 49.88 131.68 49.49 131.55 49.1 131.42 48.72 131.29 48.34 131.16 47.96 131.03 47.58 130.91 47.2 130.78 46.83 130.65 46.46 130.52 46.09 130.39 45.72 130.27 45.36 130.14 45 130.01 44.64 129.88 44.28 129.75 43.93 129.62 43.58 129.5 43.23 129.37 42.89 129.24 42.55 129.11 42.21 128.98 41.88 128.85 41.55 128.73 41.22 128.6 40.9 128.47 40.58 128.34 40.26 128.21 39.95 128.08 39.64 127.96 39.34 127.83 39.03 127.7 38.74 127.57 38.44 127.44 38.15 127.31 37.87 127.19 37.58 127.06 37.31 126.93 37.03 126.8 36.76 126.67 36.5 126.55 36.24 126.42 35.98 126.29 35.73 126.16 35.48 126.03 35.23 125.9 34.99 125.78 34.76 125.65 34.53 125.52 34.3 125.39 34.08 125.26 33.86 125.13 33.65 125.01 33.44 124.88 33.24 124.75 33.04 124.62 32.85 124.49 32.66 124.36 32.47 124.24 32.29 124.11 32.12 123.98 31.95 123.85 31.78 123.72 31.62 123.6 31.46 123.47 31.31 123.34 31.17 123.21 31.02 123.08 30.89 122.95 30.76 122.83 30.63 122.7 30.51 122.57 30.39 122.44 30.28 122.31 30.17 122.18 30.07 122.06 29.97 121.93 29.88 121.8 29.79 121.67 29.71 121.54 29.63 121.41 29.56 121.29 29.49 121.16 29.42 121.03 29.37 120.9 29.31 120.77 29.26 120.65 29.22 120.52 29.18 120.39 29.15 120.26 29.12 120.13 29.09 120 29.07 119.88 29.06 119.75 29.05 119.62 29.04 119.49 29.04 119.36 29.05 119.23 29.05 119.11 29.07 118.98 29.09 118.85 29.11 118.72 29.14 118.59 29.17 118.46 29.21 118.34 29.25 118.21 29.29 118.08 29.34 117.95 29.4 117.82 29.46 117.7 29.52 117.57 29.59 117.44 29.66 117.31 29.74 117.18 29.82 117.05 29.91 116.93 30 116.8 30.1 116.67 30.19 116.54 30.3 116.41 30.41 116.28 30.52 116.16 30.63 116.03 30.75 115.9 30.88 115.77 31.01 115.64 31.14 115.51 31.28 115.39 31.42 115.26 31.56 115.13 31.71 115 31.86 114.87 32.02 114.75 32.18 114.62 32.34 114.49 32.51 114.36 32.68 114.23 32.85 114.1 33.03 113.98 33.22 113.85 33.4 113.72 33.59 113.59 33.78 113.46 33.98 113.33 34.18 113.21 34.38 113.08 34.59 112.95 34.8 112.82 35.01 112.69 35.23 112.56 35.45 112.44 35.67 112.31 35.9 112.18 36.13 112.05 36.36 111.92 36.6 111.8 36.84 111.67 37.08 111.54 37.32 111.41 37.57 111.28 37.82 111.15 38.07 111.03 38.33 110.9 38.59 110.77 38.85 110.64 39.11 110.51 39.38 110.38 39.65 110.26 39.92 110.13 40.19 110 40.47 109.87 40.75 109.74 41.03 109.61 41.31 109.49 41.6 109.36 41.89 109.23 42.18 109.1 42.47 108.97 42.76 108.85 43.06 108.72 43.36 108.59 43.66 108.46 43.96 108.33 44.27 108.2 44.57 108.08 44.88 107.95 45.19 107.82 45.5 107.69 45.82 107.56 46.13 107.43 46.45 107.31 46.77 107.18 47.09 107.05 47.41 106.92 47.73 106.79 48.06 106.66 48.38 106.54 48.71 106.41 49.04 106.28 49.37 106.15 49.7 106.02 50.03 105.9 50.36 105.77 50.69 105.64 51.03 105.51 51.37 105.38 51.7 105.25 52.04 105.13 52.38 105 52.72 104.87 53.06 104.74 53.4 104.61 53.74 104.48 54.08 104.36 54.43 104.23 54.77 104.1 55.11 103.97 55.46 103.84 55.8 103.71 56.15 103.59 56.49 103.46 56.84 103.33 57.18 103.2 57.53 103.07 57.88 102.95 58.22 102.82 58.57 102.69 58.92 102.56 59.27 102.43 59.61 102.3 59.96 102.18 60.31 102.05 60.65 101.92 61 101.79 61.35 101.66 61.69 101.53 62.04 101.41 62.38 101.28 62.73 101.15 63.07 101.02 63.42 100.89 63.76 100.76 64.1 100.64 64.45 100.51 64.79 100.38 65.13 100.25 65.47 100.12 65.81 100 66.15 99.87 66.49 99.74 66.83 99.61 67.17 99.48 67.5 99.35 67.84 99.23 68.17 99.1 68.51 98.97 68.84 98.84 69.17 98.71 69.5 98.58 69.83 98.46 70.16 98.33 70.49 98.2 70.81 98.07 71.14 97.94 71.46 97.81 71.78 97.69 72.11 97.56 72.43 97.43 72.74 97.3 73.06 97.17 73.38 97.05 73.69 96.92 74 96.79 74.31 96.66 74.62 96.53 74.93 96.4 75.24 96.28 75.54 96.15 75.85 96.02 76.15 95.89 76.45 95.76 76.75 95.63 77.04 95.51 77.34 95.38 77.63 95.25 77.92 95.12 78.21 94.99 78.5 94.86 78.79 94.74 79.07 94.61 79.35 94.48 79.63 94.35 79.91 94.22 80.18 94.1 80.46 93.97 80.73 93.84 81 93.71 81.27 93.58 81.53 93.45 81.8 93.33 82.06 93.2 82.32 93.07 82.58 92.94 82.83 92.81 83.08 92.68 83.34 92.56 83.58 92.43 83.83 92.3 84.07 92.17 84.32 92.04 84.56 91.91 84.79 91.79 85.03 91.66 85.26 91.53 85.49 91.4 85.72 91.27 85.94 91.14 86.17 91.02 86.39 90.89 86.61 90.76 86.82 90.63 87.04 90.5 87.25 90.38 87.46 90.25 87.66 90.12 87.87 89.99 88.07 89.86 88.27 89.73 88.46 89.61 88.66 89.48 88.85 89.35 89.04 89.22 89.23 89.09 89.41 88.96 89.59 88.84 89.77 88.71 89.95 88.58 90.12 88.45 90.29 88.32 90.46 88.19 90.63 88.07 90.79 87.94 90.95 87.81 91.11 87.68 91.26 87.55 91.42 87.43 91.57 87.3 91.72 87.17 91.86 87.04 92 86.91 92.14 86.78 92.28 86.66 92.42 86.53 92.55 86.4 92.68 86.27 92.8 86.14 92.93 86.01 93.05 85.89 93.17 85.76 93.29 85.63 93.4 85.5 93.51 85.37 93.62 85.24 93.73 85.12 93.83 84.99 93.93 84.86 94.03 84.73 94.12 84.6 94.22 84.48 94.31 84.35 94.39 84.22 94.48 84.09 94.56 83.96 94.64 83.83 94.72 83.71 94.79 83.58 94.86 83.45 94.93 83.32 95 83.19 95.06 83.06 95.12 82.94 95.18 82.81 95.24 82.68 95.29 82.55 95.34 82.42 95.39 82.29 95.44 82.17 95.48 82.04 95.52 81.91 95.56 81.78 95.59 81.65 95.63 81.53 95.66 81.4 95.68 81.27 95.71 81.14 95.73 81.01 95.75 80.88 95.77 80.76 95.79 80.63 95.8 80.5 95.81 80.37 95.82 80.24 95.82 80.11 95.83 79.99 95.83 79.86 95.82 79.73 95.82 79.6 95.81 79.47 95.8 79.34 95.79 79.22 95.78 79.09 95.76 78.96 95.74 78.83 95.72 78.7 95.7 78.58 95.67 78.45 95.64 78.32 95.61 78.19 95.58 78.06 95.54 77.93 95.51 77.81 95.47 77.68 95.42 77.55 95.38 77.42 95.33 77.29 95.28 77.16 95.23 77.04 95.18 76.91 95.13 76.78 95.07 76.65 95.01 76.52 94.95 76.39 94.88 76.27 94.82 76.14 94.75 76.01 94.68 75.88 94.61 75.75 94.53 75.63 94.45 75.5 94.38 75.37 94.3 75.24 94.21 75.11 94.13 74.98 94.04 74.86 93.95 74.73 93.86 74.6 93.77 74.47 93.68 74.34 93.58 74.21 93.48 74.09 93.38 73.96 93.28 73.83 93.18 73.7 93.07 73.57 92.97 73.44 92.86 73.32 92.75 73.19 92.64 73.06 92.52 72.93 92.41 72.8 92.29 72.68 92.17 72.55 92.05 72.42 91.93 72.29 91.81 72.16 91.68 72.03 91.55 71.91 91.43 71.78 91.3 71.65 91.16 71.52 91.03 71.39 90.9 71.26 90.76 71.14 90.62 71.01 90.49 70.88 90.35 70.75 90.21 70.62 90.06 70.49 89.92 70.37 89.78 70.24 89.63 70.11 89.48 69.98 89.33 69.85 89.18 69.73 89.03 69.6 88.88 69.47 88.73 69.34 88.57 69.21 88.42 69.08 88.26 68.96 88.1 68.83 87.94 68.7 87.78 68.57 87.62 68.44 87.46 68.31 87.3 68.19 87.14 68.06 86.97 67.93 86.81 67.8 86.64 67.67 86.47 67.54 86.31 67.42 86.14 67.29 85.97 67.16 85.8 67.03 85.63 66.9 85.46 66.78 85.28 66.65 85.11 66.52 84.94 66.39 84.76 66.26 84.59 66.13 84.42 66.01 84.24 65.88 84.06 65.75 83.89 65.62 83.71 65.49 83.53 65.36 83.35 65.24 83.18 65.11 83 64.98 82.82 64.85 82.64 64.72 82.46 64.59 82.28 64.47 82.1 64.34 81.92 64.21 81.74 64.08 81.55 63.95 81.37 63.83 81.19 63.7 81.01 63.57 80.83 63.44 80.65 63.31 80.46 63.18 80.28 63.06 80.1 62.93 79.92 62.8 79.73 62.67 79.55 62.54 79.37 62.41 79.19 62.29 79.01 62.16 78.82 62.03 78.64 61.9 78.46 61.77 78.28 61.64 78.1 61.52 77.91 61.39 77.73 61.26 77.55 61.13 77.37 61 77.19 60.88 77.01 60.75 76.83 60.62 76.65 60.49 76.47 60.36 76.29 60.23 76.11 60.11 75.94 59.98 75.76 59.85 75.58 59.72 75.4 59.59 75.23 59.46 75.05 59.34 74.87 59.21 74.7 59.08 74.52 58.95 74.35 58.82 74.18 58.69 74 58.57 73.83 58.44 73.66 58.31 73.49 58.18 73.32 58.05 73.15 57.93 72.98 57.8 72.81 57.67 72.64 57.54 72.48 57.41 72.31 57.28 72.14 57.16 71.98 57.03 71.81 56.9 71.65 56.77 71.49 56.64 71.33 56.51 71.17 56.39 71.01 56.26 70.85 56.13 70.69 56 70.53 55.87 70.37 55.74 70.22 55.62 70.06 55.49 69.91 55.36 69.76 55.23 69.61 55.1 69.45 54.97 69.3 54.85 69.16 54.72 69.01 54.59 68.86 54.46 68.72 54.33 68.57 54.21 68.43 54.08 68.29 53.95 68.14 53.82 68 53.69 67.87 53.56 67.73 53.44 67.59 53.31 67.46 53.18 67.32 53.05 67.19 52.92 67.06 52.79 66.92 52.67 66.8 52.54 66.67 52.41 66.54 52.28 66.41 52.15 66.29 52.02 66.17 51.9 66.04 51.77 65.92 51.64 65.8 51.51 65.69 51.38 65.57 51.26 65.45 51.13 65.34 51 65.23 50.87 65.12 50.74 65.01 50.61 64.9 50.49 64.79 50.36 64.68 50.23 64.58 50.1 64.48 49.97 64.37 49.84 64.27 49.72 64.18 49.59 64.08 49.46 63.98 49.33 63.89 49.2 63.8 49.07 63.7 48.95 63.61 48.82 63.53 48.69 63.44 48.56 63.35 48.43 63.27 48.31 63.19 48.18 63.11 48.05 63.03 47.92 62.95 47.79 62.87 47.66 62.8 47.54 62.72 47.41 62.65 47.28 62.58 47.15 62.51 47.02 62.45 46.89 62.38 46.77 62.32 46.64 62.25 46.51 62.19 46.38 62.13 46.25 62.08 46.12 62.02 46 61.97 45.87 61.91 45.74 61.86 45.61 61.81 45.48 61.76 45.36 61.72 45.23 61.67 45.1 61.63 44.97 61.59 44.84 61.55 44.71 61.51 44.59 61.47 44.46 61.44 44.33 61.4 44.2 61.37 44.07 61.34 43.94 61.31 43.82 61.28 43.69 61.26 43.56 61.23 43.43 61.21 43.3 61.19 43.17 61.17 43.05 61.15 42.92 61.14 42.79 61.12 42.66 61.11 42.53 61.1 42.41 61.09 42.28 61.08 42.15 61.07 42.02 61.06 41.89 61.06 41.76 61.06 41.64 61.06 41.51 61.06 41.38 61.06 41.25 61.06 41.12 61.07 40.99 61.07 40.87 61.08 40.74 61.09 40.61 61.1 40.48 61.11 40.35 61.13 40.22 61.14 40.1 61.16 39.97 61.18 39.84 61.2 39.71 61.22 39.58 61.24 39.46 61.26 39.33 61.29 39.2 61.31 39.07 61.34 38.94 61.37 38.81 61.4 38.69 61.43 38.56 61.46 38.43 61.5 38.3 61.53 38.17 61.57 38.04 61.6 37.92 61.64 37.79 61.68 37.66 61.72 37.53 61.77 37.4 61.81 37.27 61.85 37.15 61.9 37.02 61.95 36.89 61.99 36.76 62.04 36.63 62.09 36.51 62.14 36.38 62.2 36.25 62.25 36.12 62.3 35.99 62.36 35.86 62.41 35.74 62.47 35.61 62.53 35.48 62.58 35.35 62.64 35.22 62.7 35.09 62.77 34.97 62.83 34.84 62.89 34.71 62.95 34.58 63.02 34.45 63.08 34.32 63.15 34.2 63.21 34.07 63.28 33.94 63.35 33.81 63.42 33.68 63.49 33.56 63.55 33.43 63.62 33.3 63.7 33.17 63.77 33.04 63.84 32.91 63.91 32.79 63.98 32.66 64.06 32.53 64.13 32.4 64.2 32.27 64.28 32.14 64.35 32.02 64.43 31.89 64.5 31.76 64.58 31.63 64.65 31.5 64.73 31.37 64.81 31.25 64.88 31.12 64.96 30.99 65.04 30.86 65.11 30.73 65.19 30.61 65.27 30.48 65.35 30.35 65.43 30.22 65.5 30.09 65.58 29.96 65.66 29.84 65.74 29.71 65.82 29.58 65.9 29.45 65.97 29.32 66.05 29.19 66.13 29.07 66.21 28.94 66.29 28.81 66.37 28.68 66.45 28.55 66.52 28.42 66.6 28.3 66.68 28.17 66.76 28.04 66.84 27.91 66.92 27.78 66.99 27.66 67.07 27.53 67.15 27.4 67.23 27.27 67.3 27.14 67.38 27.01 67.46 26.89 67.54 26.76 67.61 26.63 67.69 26.5 67.77 26.37 67.85 26.24 67.92 26.12 68 25.99 68.08 25.86 68.15 25.73 68.23 25.6 68.31 25.47 68.38 25.35 68.46 25.22 68.54 25.09 68.61 24.96 68.69 24.83 68.76 24.71 68.84 24.58 68.92 24.45 68.99 24.32 69.07 24.19 69.14 24.06 69.22 23.94 69.3 23.81 69.37 23.68 69.45 23.55 69.53 23.42 69.6 23.29 69.68 23.17 69.76 23.04 69.83 22.91 69.91 22.78 69.99 22.65 70.06 22.52 70.14 22.4 70.22 22.27 70.3 22.14 70.38 22.01 70.45 21.88 70.53 21.76 70.61 21.63 70.69 21.5 70.77 21.37 70.85 21.24 70.93 21.11 71.01 20.99 71.09 20.86 71.17 20.73 71.25 20.6 71.33 20.47 71.41 20.34 71.49 20.22 71.57 20.09 71.66 19.96 71.74 19.83 71.82 19.7 71.91 19.57 71.99 19.45 72.07 19.32 72.16 19.19 72.24 19.06 72.33 18.93 72.41 18.8 72.5 18.68 72.58 18.55 72.67 18.42 72.75 18.29 72.84 18.16 72.93 18.04 73.01 17.91 73.1 17.78 73.19 17.65 73.28 17.52 73.36 17.39 73.45 17.27 73.54 17.27 59.64 17.39 59.64 17.52 59.64 17.65 59.64 17.78 59.64 17.91 59.63 18.04 59.63 18.16 59.62 18.29 59.62 18.42 59.61 18.55 59.6 18.68 59.59 18.8 59.58 18.93 59.56 19.06 59.55 19.19 59.54 19.32 59.52 19.45 59.5 19.57 59.48 19.7 59.46 19.83 59.44 19.96 59.42 20.09 59.4 20.22 59.37 20.34 59.34 20.47 59.32 20.6 59.29 20.73 59.26 20.86 59.23 20.99 59.19 21.11 59.16 21.24 59.12 21.37 59.09 21.5 59.05 21.63 59.01 21.76 58.97 21.88 58.93 22.01 58.89 22.14 58.84 22.27 58.8 22.4 58.75 22.52 58.71 22.65 58.66 22.78 58.61 22.91 58.56 23.04 58.51 23.17 58.45 23.29 58.4 23.42 58.34 23.55 58.29 23.68 58.23 23.81 58.17 23.94 58.12 24.06 58.06 24.19 58 24.32 57.93 24.45 57.87 24.58 57.81 24.71 57.74 24.83 57.68 24.96 57.61 25.09 57.55 25.22 57.48 25.35 57.41 25.47 57.34 25.6 57.27 25.73 57.2 25.86 57.13 25.99 57.06 26.12 56.99 26.24 56.92 26.37 56.85 26.5 56.77 26.63 56.7 26.76 56.62 26.89 56.55 27.01 56.47 27.14 56.4 27.27 56.32 27.4 56.25 27.53 56.17 27.66 56.09 27.78 56.02 27.91 55.94 28.04 55.86 28.17 55.78 28.3 55.7 28.42 55.63 28.55 55.55 28.68 55.47 28.81 55.39 28.94 55.31 29.07 55.23 29.19 55.15 29.32 55.07 29.45 55 29.58 54.92 29.71 54.84 29.84 54.76 29.96 54.68 30.09 54.6 30.22 54.52 30.35 54.44 30.48 54.37 30.61 54.29 30.73 54.21 30.86 54.13 30.99 54.05 31.12 53.98 31.25 53.9 31.37 53.82 31.5 53.74 31.63 53.67 31.76 53.59 31.89 53.52 32.02 53.44 32.14 53.37 32.27 53.29 32.4 53.22 32.53 53.14 32.66 53.07 32.79 53 32.91 52.93 33.04 52.85 33.17 52.78 33.3 52.71 33.43 52.64 33.56 52.57 33.68 52.5 33.81 52.44 33.94 52.37 34.07 52.3 34.2 52.24 34.32 52.17 34.45 52.11 34.58 52.04 34.71 51.98 34.84 51.92 34.97 51.85 35.09 51.79 35.22 51.73 35.35 51.67 35.48 51.61 35.61 51.56 35.74 51.5 35.86 51.44 35.99 51.39 36.12 51.34 36.25 51.28 36.38 51.23 36.51 51.18 36.63 51.13 36.76 51.08 36.89 51.03 37.02 50.99 37.15 50.94 37.27 50.9 37.4 50.85 37.53 50.81 37.66 50.77 37.79 50.73 37.92 50.69 38.04 50.65 38.17 50.61 38.3 50.58 38.43 50.54 38.56 50.51 38.69 50.48 38.81 50.45 38.94 50.42 39.07 50.39 39.2 50.36 39.33 50.34 39.46 50.31 39.58 50.29 39.71 50.27 39.84 50.25 39.97 50.23 40.1 50.21 40.22 50.2 40.35 50.18 40.48 50.17 40.61 50.16 40.74 50.14 40.87 50.14 40.99 50.13 41.12 50.12 41.25 50.12 41.38 50.11 41.51 50.11 41.64 50.11 41.76 50.11 41.89 50.12 42.02 50.12 42.15 50.13 42.28 50.13 42.41 50.14 42.53 50.15 42.66 50.16 42.79 50.18 42.92 50.19 43.05 50.21 43.17 50.23 43.3 50.25 43.43 50.27 43.56 50.29 43.69 50.31 43.82 50.34 43.94 50.37 44.07 50.4 44.2 50.43 44.33 50.46 44.46 50.49 44.59 50.53 44.71 50.57 44.84 50.6 44.97 50.64 45.1 50.69 45.23 50.73 45.36 50.77 45.48 50.82 45.61 50.87 45.74 50.92 45.87 50.97 46 51.02 46.12 51.08 46.25 51.13 46.38 51.19 46.51 51.25 46.64 51.31 46.77 51.37 46.89 51.44 47.02 51.5 47.15 51.57 47.28 51.64 47.41 51.71 47.54 51.78 47.66 51.85 47.79 51.93 47.92 52 48.05 52.08 48.18 52.16 48.31 52.24 48.43 52.33 48.56 52.41 48.69 52.49 48.82 52.58 48.95 52.67 49.07 52.76 49.2 52.85 49.33 52.94 49.46 53.04 49.59 53.13 49.72 53.23 49.84 53.33 49.97 53.43 50.1 53.53 50.23 53.64 50.36 53.74 50.49 53.85 50.61 53.95 50.74 54.06 50.87 54.17 51 54.28 51.13 54.4 51.26 54.51 51.38 54.63 51.51 54.74 51.64 54.86 51.77 54.98 51.9 55.1 52.02 55.22 52.15 55.35 52.28 55.47 52.41 55.6 52.54 55.72 52.67 55.85 52.79 55.98 52.92 56.11 53.05 56.24 53.18 56.38 53.31 56.51 53.44 56.65 53.56 56.78 53.69 56.92 53.82 57.06 53.95 57.2 54.08 57.34 54.21 57.49 54.33 57.63 54.46 57.77 54.59 57.92 54.72 58.07 54.85 58.21 54.97 58.36 55.1 58.51 55.23 58.66 55.36 58.81 55.49 58.97 55.62 59.12 55.74 59.28 55.87 59.43 56 59.59 56.13 59.75 56.26 59.9 56.39 60.06 56.51 60.22 56.64 60.38 56.77 60.55 56.9 60.71 57.03 60.87 57.16 61.04 57.28 61.2 57.41 61.37 57.54 61.53 57.67 61.7 57.8 61.87 57.93 62.04 58.05 62.21 58.18 62.38 58.31 62.55 58.44 62.72 58.57 62.89 58.69 63.06 58.82 63.23 58.95 63.41 59.08 63.58 59.21 63.76 59.34 63.93 59.46 64.11 59.59 64.28 59.72 64.46 59.85 64.64 59.98 64.81 60.11 64.99 60.23 65.17 60.36 65.35 60.49 65.53 60.62 65.71 60.75 65.89 60.88 66.07 61 66.25 61.13 66.43 61.26 66.61 61.39 66.79 61.52 66.97 61.64 67.15 61.77 67.34 61.9 67.52 62.03 67.7 62.16 67.88 62.29 68.06 62.41 68.25 62.54 68.43 62.67 68.61 62.8 68.79 62.93 68.97 63.06 69.16 63.18 69.34 63.31 69.52 63.44 69.7 63.57 69.89 63.7 70.07 63.83 70.25 63.95 70.43 64.08 70.61 64.21 70.79 64.34 70.97 64.47 71.16 64.59 71.34 64.72 71.52 64.85 71.7 64.98 71.88 65.11 72.05 65.24 72.23 65.36 72.41 65.49 72.59 65.62 72.77 65.75 72.94 65.88 73.12 66.01 73.3 66.13 73.47 66.26 73.65 66.39 73.82 66.52 74 66.65 74.17 66.78 74.34 66.9 74.51 67.03 74.69 67.16 74.86 67.29 75.03 67.42 75.2 67.54 75.36 67.67 75.53 67.8 75.7 67.93 75.86 68.06 76.03 68.19 76.19 68.31 76.36 68.44 76.52 68.57 76.68 68.7 76.84 68.83 77 68.96 77.16 69.08 77.32 69.21 77.47 69.34 77.63 69.47 77.78 69.6 77.94 69.73 78.09 69.85 78.24 69.98 78.39 70.11 78.54 70.24 78.69 70.37 78.83 70.49 78.98 70.62 79.12 70.75 79.26 70.88 79.4 71.01 79.54 71.14 79.68 71.26 79.82 71.39 79.95 71.52 80.09 71.65 80.22 71.78 80.35 71.91 80.48 72.03 80.61 72.16 80.74 72.29 80.86 72.42 80.99 72.55 81.11 72.68 81.23 72.8 81.35 72.93 81.46 73.06 81.58 73.19 81.69 73.32 81.81 73.44 81.92 73.57 82.02 73.7 82.13 73.83 82.24 73.96 82.34 74.09 82.44 74.21 82.54 74.34 82.64 74.47 82.73 74.6 82.83 74.73 82.92 74.86 83.01 74.98 83.1 75.11 83.19 75.24 83.27 75.37 83.35 75.5 83.43 75.63 83.51 75.75 83.59 75.88 83.66 76.01 83.74 76.14 83.81 76.27 83.87 76.39 83.94 76.52 84 76.65 84.07 76.78 84.13 76.91 84.18 77.04 84.24 77.16 84.29 77.29 84.34 77.42 84.39 77.55 84.44 77.68 84.48 77.81 84.52 77.93 84.56 78.06 84.6 78.19 84.64 78.32 84.67 78.45 84.7 78.58 84.73 78.7 84.75 78.83 84.78 78.96 84.8 79.09 84.82 79.22 84.83 79.34 84.85 79.47 84.86 79.6 84.87 79.73 84.88 79.86 84.88 79.99 84.88 80.11 84.88 80.24 84.88 80.37 84.87 80.5 84.87 80.63 84.86 80.76 84.84 80.88 84.83 81.01 84.81 81.14 84.79 81.27 84.77 81.4 84.74 81.53 84.71 81.65 84.68 81.78 84.65 81.91 84.62 82.04 84.58 82.17 84.54 82.29 84.49 82.42 84.45 82.55 84.4 82.68 84.35 82.81 84.3 82.94 84.24 83.06 84.18 83.19 84.12 83.32 84.06 83.45 83.99 83.58 83.92 83.71 83.85 83.83 83.77 83.96 83.7 84.09 83.62 84.22 83.54 84.35 83.45 84.48 83.36 84.6 83.27 84.73 83.18 84.86 83.08 84.99 82.99 85.12 82.89 85.24 82.78 85.37 82.68 85.5 82.57 85.63 82.46 85.76 82.34 85.89 82.23 86.01 82.11 86.14 81.99 86.27 81.86 86.4 81.74 86.53 81.61 86.66 81.47 86.78 81.34 86.91 81.2 87.04 81.06 87.17 80.92 87.3 80.77 87.43 80.63 87.55 80.47 87.68 80.32 87.81 80.17 87.94 80.01 88.07 79.85 88.19 79.68 88.32 79.52 88.45 79.35 88.58 79.18 88.71 79 88.84 78.83 88.96 78.65 89.09 78.47 89.22 78.28 89.35 78.1 89.48 77.91 89.61 77.72 89.73 77.52 89.86 77.33 89.99 77.13 90.12 76.93 90.25 76.72 90.38 76.51 90.5 76.31 90.63 76.09 90.76 75.88 90.89 75.66 91.02 75.45 91.14 75.23 91.27 75 91.4 74.78 91.53 74.55 91.66 74.32 91.79 74.09 91.91 73.85 92.04 73.61 92.17 73.37 92.3 73.13 92.43 72.89 92.56 72.64 92.68 72.39 92.81 72.14 92.94 71.89 93.07 71.63 93.2 71.38 93.33 71.12 93.45 70.86 93.58 70.59 93.71 70.33 93.84 70.06 93.97 69.79 94.1 69.52 94.22 69.24 94.35 68.97 94.48 68.69 94.61 68.41 94.74 68.13 94.86 67.84 94.99 67.56 95.12 67.27 95.25 66.98 95.38 66.69 95.51 66.4 95.63 66.1 95.76 65.8 95.89 65.51 96.02 65.21 96.15 64.9 96.28 64.6 96.4 64.3 96.53 63.99 96.66 63.68 96.79 63.37 96.92 63.06 97.05 62.75 97.17 62.43 97.3 62.12 97.43 61.8 97.56 61.48 97.69 61.16 97.81 60.84 97.94 60.52 98.07 60.2 98.2 59.87 98.33 59.54 98.46 59.22 98.58 58.89 98.71 58.56 98.84 58.23 98.97 57.9 99.1 57.56 99.23 57.23 99.35 56.9 99.48 56.56 99.61 56.22 99.74 55.89 99.87 55.55 100 55.21 100.12 54.87 100.25 54.53 100.38 54.19 100.51 53.85 100.64 53.5 100.76 53.16 100.89 52.82 101.02 52.47 101.15 52.13 101.28 51.79 101.41 51.44 101.53 51.09 101.66 50.75 101.79 50.4 101.92 50.06 102.05 49.71 102.18 49.36 102.3 49.02 102.43 48.67 102.56 48.32 102.69 47.98 102.82 47.63 102.95 47.28 103.07 46.94 103.2 46.59 103.33 46.24 103.46 45.9 103.59 45.55 103.71 45.2 103.84 44.86 103.97 44.51 104.1 44.17 104.23 43.83 104.36 43.48 104.48 43.14 104.61 42.8 104.74 42.46 104.87 42.12 105 41.78 105.13 41.44 105.25 41.1 105.38 40.76 105.51 40.42 105.64 40.09 105.77 39.75 105.9 39.42 106.02 39.09 106.15 38.75 106.28 38.42 106.41 38.09 106.54 37.77 106.66 37.44 106.79 37.11 106.92 36.79 107.05 36.47 107.18 36.14 107.31 35.82 107.43 35.51 107.56 35.19 107.69 34.87 107.82 34.56 107.95 34.25 108.08 33.94 108.2 33.63 108.33 33.32 108.46 33.02 108.59 32.72 108.72 32.42 108.85 32.12 108.97 31.82 109.1 31.53 109.23 31.23 109.36 30.94 109.49 30.66 109.61 30.37 109.74 30.09 109.87 29.8 110 29.53 110.13 29.25 110.26 28.97 110.38 28.7 110.51 28.43 110.64 28.17 110.77 27.9 110.9 27.64 111.03 27.38 111.15 27.13 111.28 26.88 111.41 26.63 111.54 26.38 111.67 26.13 111.8 25.89 111.92 25.65 112.05 25.42 112.18 25.19 112.31 24.96 112.44 24.73 112.56 24.51 112.69 24.29 112.82 24.07 112.95 23.86 113.08 23.65 113.21 23.44 113.33 23.24 113.46 23.04 113.59 22.84 113.72 22.65 113.85 22.46 113.98 22.27 114.1 22.09 114.23 21.91 114.36 21.74 114.49 21.56 114.62 21.4 114.75 21.23 114.87 21.07 115 20.92 115.13 20.76 115.26 20.62 115.39 20.47 115.51 20.33 115.64 20.19 115.77 20.06 115.9 19.93 116.03 19.81 116.16 19.69 116.28 19.57 116.41 19.46 116.54 19.35 116.67 19.25 116.8 19.15 116.93 19.06 117.05 18.97 117.18 18.88 117.31 18.8 117.44 18.72 117.57 18.65 117.7 18.58 117.82 18.52 117.95 18.46 118.08 18.4 118.21 18.35 118.34 18.3 118.46 18.26 118.59 18.23 118.72 18.19 118.85 18.17 118.98 18.14 119.11 18.12 119.23 18.11 119.36 18.1 119.49 18.1 119.62 18.1 119.75 18.1 119.88 18.11 120 18.13 120.13 18.15 120.26 18.17 120.39 18.2 120.52 18.24 120.65 18.28 120.77 18.32 120.9 18.37 121.03 18.42 121.16 18.48 121.29 18.54 121.41 18.61 121.54 18.68 121.67 18.76 121.8 18.84 121.93 18.93 122.06 19.02 122.18 19.12 122.31 19.22 122.44 19.33 122.57 19.44 122.7 19.56 122.83 19.68 122.95 19.81 123.08 19.94 123.21 20.08 123.34 20.22 123.47 20.36 123.6 20.51 123.72 20.67 123.85 20.83 123.98 20.99 124.11 21.16 124.24 21.34 124.36 21.52 124.49 21.7 124.62 21.89 124.75 22.08 124.88 22.28 125.01 22.49 125.13 22.69 125.26 22.9 125.39 23.12 125.52 23.34 125.65 23.57 125.78 23.8 125.9 24.03 126.03 24.27 126.16 24.51 126.29 24.76 126.42 25.01 126.55 25.27 126.67 25.53 126.8 25.8 126.93 26.06 127.06 26.34 127.19 26.61 127.31 26.9 127.44 27.18 127.57 27.47 127.7 27.76 127.83 28.06 127.96 28.36 128.08 28.67 128.21 28.97 128.34 29.29 128.47 29.6 128.6 29.92 128.73 30.24 128.85 30.57 128.98 30.9 129.11 31.23 129.24 31.57 129.37 31.91 129.5 32.25 129.62 32.6 129.75 32.95 129.88 33.3 130.01 33.65 130.14 34.01 130.27 34.37 130.39 34.74 130.52 35.1 130.65 35.47 130.78 35.84 130.91 36.22 131.03 36.59 131.16 36.97 131.29 37.35 131.42 37.73 131.55 38.12 131.68 38.51 131.8 38.89 131.93 39.29 132.06 39.68 132.19 40.07 132.32 40.47 132.45 40.87 132.57 41.26 132.7 41.67 132.83 42.07 132.96 42.47 133.09 42.87 133.22 43.28 133.34 43.68 133.47 44.09 133.6 44.5 133.73 44.91 133.86 45.32 133.98 45.72 134.11 46.13 134.24 46.54 134.37 46.96 134.5 47.37 134.63 47.78 134.75 48.19 134.88 48.6 135.01 49.01 135.14 49.42 135.27 49.83 135.4 50.23 135.52 50.64 135.65 51.05 135.78 51.46 135.91 51.86 136.04 52.27 136.17 52.67 136.29 53.07 136.42 53.47 136.55 53.87 136.68 54.27 136.81 54.67 136.93 55.06 137.06 55.46 137.19 55.85 137.32 56.24 137.45 56.62 137.58 57.01 137.7 57.39 137.83 57.77 137.96 58.15 138.09 58.53 138.22 58.9 138.35 59.27 138.47 59.64 138.6 60 138.73 60.36 138.86 60.72 138.99 61.08 139.12 61.43 139.24 61.78 139.37 62.12 139.5 62.47 139.63 62.8 139.76 63.14 139.88 63.47 140.01 63.8 140.14 64.12 140.27 64.44 140.4 64.75 140.53 65.06 140.65 65.37 140.78 65.67 140.91 65.97 141.04 66.27 141.17 66.56 141.3 66.84 141.42 67.12 141.55 67.4 141.68 67.67 141.81 67.94 141.94 68.2 142.07 68.45 142.19 68.71 142.32 68.95 142.45 69.2 142.58 69.43 142.71 69.67 142.83 69.89 142.96 70.12 143.09 70.33 143.22 70.55 143.35 70.75 143.48 70.96 143.6 71.15 143.73 71.35 143.86 71.53 143.99 71.71 144.12 71.89 144.25 72.06 144.37 72.23 144.5 72.39 144.63 72.55 144.76 72.7 144.89 72.84 145.02 72.98 145.14 73.12 145.27 73.25 145.4 73.37 z"/>
      </g>
      <g stroke-width="0.3" fill="none" class="geometry" stroke="#00BFFF" id="fig-9d3648133b0b4785bb735f47a7f5bb3a-element-11">
        <path d="M17.27,66.59 L 17.39 66.55 17.52 66.5 17.65 66.46 17.78 66.41 17.91 66.37 18.04 66.32 18.16 66.27 18.29 66.23 18.42 66.18 18.55 66.13 18.68 66.09 18.8 66.04 18.93 65.99 19.06 65.94 19.19 65.89 19.32 65.84 19.45 65.79 19.57 65.74 19.7 65.68 19.83 65.63 19.96 65.58 20.09 65.53 20.22 65.47 20.34 65.42 20.47 65.36 20.6 65.31 20.73 65.25 20.86 65.2 20.99 65.14 21.11 65.08 21.24 65.03 21.37 64.97 21.5 64.91 21.63 64.85 21.76 64.79 21.88 64.73 22.01 64.67 22.14 64.61 22.27 64.55 22.4 64.49 22.52 64.42 22.65 64.36 22.78 64.3 22.91 64.23 23.04 64.17 23.17 64.1 23.29 64.04 23.42 63.97 23.55 63.91 23.68 63.84 23.81 63.77 23.94 63.71 24.06 63.64 24.19 63.57 24.32 63.5 24.45 63.43 24.58 63.36 24.71 63.29 24.83 63.22 24.96 63.15 25.09 63.08 25.22 63.01 25.35 62.94 25.47 62.86 25.6 62.79 25.73 62.72 25.86 62.64 25.99 62.57 26.12 62.5 26.24 62.42 26.37 62.35 26.5 62.27 26.63 62.2 26.76 62.12 26.89 62.04 27.01 61.97 27.14 61.89 27.27 61.81 27.4 61.74 27.53 61.66 27.66 61.58 27.78 61.5 27.91 61.43 28.04 61.35 28.17 61.27 28.3 61.19 28.42 61.11 28.55 61.04 28.68 60.96 28.81 60.88 28.94 60.8 29.07 60.72 29.19 60.64 29.32 60.56 29.45 60.48 29.58 60.41 29.71 60.33 29.84 60.25 29.96 60.17 30.09 60.09 30.22 60.01 30.35 59.93 30.48 59.86 30.61 59.78 30.73 59.7 30.86 59.62 30.99 59.55 31.12 59.47 31.25 59.39 31.37 59.31 31.5 59.24 31.63 59.16 31.76 59.09 31.89 59.01 32.02 58.93 32.14 58.86 32.27 58.78 32.4 58.71 32.53 58.64 32.66 58.56 32.79 58.49 32.91 58.42 33.04 58.35 33.17 58.27 33.3 58.2 33.43 58.13 33.56 58.06 33.68 58 33.81 57.93 33.94 57.86 34.07 57.79 34.2 57.72 34.32 57.66 34.45 57.59 34.58 57.53 34.71 57.47 34.84 57.4 34.97 57.34 35.09 57.28 35.22 57.22 35.35 57.16 35.48 57.1 35.61 57.04 35.74 56.98 35.86 56.93 35.99 56.87 36.12 56.82 36.25 56.77 36.38 56.71 36.51 56.66 36.63 56.61 36.76 56.56 36.89 56.51 37.02 56.47 37.15 56.42 37.27 56.37 37.4 56.33 37.53 56.29 37.66 56.25 37.79 56.2 37.92 56.17 38.04 56.13 38.17 56.09 38.3 56.05 38.43 56.02 38.56 55.99 38.69 55.95 38.81 55.92 38.94 55.89 39.07 55.86 39.2 55.84 39.33 55.81 39.46 55.79 39.58 55.76 39.71 55.74 39.84 55.72 39.97 55.7 40.1 55.68 40.22 55.67 40.35 55.65 40.48 55.64 40.61 55.63 40.74 55.62 40.87 55.61 40.99 55.6 41.12 55.59 41.25 55.59 41.38 55.59 41.51 55.58 41.64 55.58 41.76 55.59 41.89 55.59 42.02 55.59 42.15 55.6 42.28 55.61 42.41 55.61 42.53 55.62 42.66 55.64 42.79 55.65 42.92 55.66 43.05 55.68 43.17 55.7 43.3 55.72 43.43 55.74 43.56 55.76 43.69 55.79 43.82 55.81 43.94 55.84 44.07 55.87 44.2 55.9 44.33 55.93 44.46 55.97 44.59 56 44.71 56.04 44.84 56.08 44.97 56.12 45.1 56.16 45.23 56.2 45.36 56.25 45.48 56.29 45.61 56.34 45.74 56.39 45.87 56.44 46 56.49 46.12 56.55 46.25 56.61 46.38 56.66 46.51 56.72 46.64 56.78 46.77 56.85 46.89 56.91 47.02 56.97 47.15 57.04 47.28 57.11 47.41 57.18 47.54 57.25 47.66 57.33 47.79 57.4 47.92 57.48 48.05 57.55 48.18 57.63 48.31 57.71 48.43 57.8 48.56 57.88 48.69 57.97 48.82 58.05 48.95 58.14 49.07 58.23 49.2 58.32 49.33 58.42 49.46 58.51 49.59 58.61 49.72 58.7 49.84 58.8 49.97 58.9 50.1 59 50.23 59.11 50.36 59.21 50.49 59.32 50.61 59.42 50.74 59.53 50.87 59.64 51 59.75 51.13 59.87 51.26 59.98 51.38 60.1 51.51 60.21 51.64 60.33 51.77 60.45 51.9 60.57 52.02 60.69 52.15 60.82 52.28 60.94 52.41 61.07 52.54 61.2 52.67 61.32 52.79 61.45 52.92 61.58 53.05 61.72 53.18 61.85 53.31 61.98 53.44 62.12 53.56 62.26 53.69 62.39 53.82 62.53 53.95 62.67 54.08 62.81 54.21 62.96 54.33 63.1 54.46 63.24 54.59 63.39 54.72 63.54 54.85 63.68 54.97 63.83 55.1 63.98 55.23 64.13 55.36 64.29 55.49 64.44 55.62 64.59 55.74 64.75 55.87 64.9 56 65.06 56.13 65.22 56.26 65.37 56.39 65.53 56.51 65.69 56.64 65.86 56.77 66.02 56.9 66.18 57.03 66.34 57.16 66.51 57.28 66.67 57.41 66.84 57.54 67 57.67 67.17 57.8 67.34 57.93 67.51 58.05 67.68 58.18 67.85 58.31 68.02 58.44 68.19 58.57 68.36 58.69 68.53 58.82 68.71 58.95 68.88 59.08 69.05 59.21 69.23 59.34 69.4 59.46 69.58 59.59 69.76 59.72 69.93 59.85 70.11 59.98 70.29 60.11 70.46 60.23 70.64 60.36 70.82 60.49 71 60.62 71.18 60.75 71.36 60.88 71.54 61 71.72 61.13 71.9 61.26 72.08 61.39 72.26 61.52 72.44 61.64 72.62 61.77 72.81 61.9 72.99 62.03 73.17 62.16 73.35 62.29 73.53 62.41 73.72 62.54 73.9 62.67 74.08 62.8 74.26 62.93 74.45 63.06 74.63 63.18 74.81 63.31 74.99 63.44 75.17 63.57 75.36 63.7 75.54 63.83 75.72 63.95 75.9 64.08 76.08 64.21 76.26 64.34 76.45 64.47 76.63 64.59 76.81 64.72 76.99 64.85 77.17 64.98 77.35 65.11 77.53 65.24 77.7 65.36 77.88 65.49 78.06 65.62 78.24 65.75 78.42 65.88 78.59 66.01 78.77 66.13 78.94 66.26 79.12 66.39 79.29 66.52 79.47 66.65 79.64 66.78 79.81 66.9 79.99 67.03 80.16 67.16 80.33 67.29 80.5 67.42 80.67 67.54 80.84 67.67 81 67.8 81.17 67.93 81.34 68.06 81.5 68.19 81.67 68.31 81.83 68.44 81.99 68.57 82.15 68.7 82.31 68.83 82.47 68.96 82.63 69.08 82.79 69.21 82.95 69.34 83.1 69.47 83.26 69.6 83.41 69.73 83.56 69.85 83.71 69.98 83.86 70.11 84.01 70.24 84.16 70.37 84.3 70.49 84.45 70.62 84.59 70.75 84.73 70.88 84.88 71.01 85.02 71.14 85.15 71.26 85.29 71.39 85.43 71.52 85.56 71.65 85.69 71.78 85.82 71.91 85.95 72.03 86.08 72.16 86.21 72.29 86.33 72.42 86.46 72.55 86.58 72.68 86.7 72.8 86.82 72.93 86.94 73.06 87.05 73.19 87.16 73.32 87.28 73.44 87.39 73.57 87.5 73.7 87.6 73.83 87.71 73.96 87.81 74.09 87.91 74.21 88.01 74.34 88.11 74.47 88.21 74.6 88.3 74.73 88.39 74.86 88.48 74.98 88.57 75.11 88.66 75.24 88.74 75.37 88.82 75.5 88.9 75.63 88.98 75.75 89.06 75.88 89.13 76.01 89.21 76.14 89.28 76.27 89.35 76.39 89.41 76.52 89.48 76.65 89.54 76.78 89.6 76.91 89.65 77.04 89.71 77.16 89.76 77.29 89.81 77.42 89.86 77.55 89.91 77.68 89.95 77.81 90 77.93 90.04 78.06 90.07 78.19 90.11 78.32 90.14 78.45 90.17 78.58 90.2 78.7 90.23 78.83 90.25 78.96 90.27 79.09 90.29 79.22 90.31 79.34 90.32 79.47 90.33 79.6 90.34 79.73 90.35 79.86 90.35 79.99 90.35 80.11 90.35 80.24 90.35 80.37 90.35 80.5 90.34 80.63 90.33 80.76 90.31 80.88 90.3 81.01 90.28 81.14 90.26 81.27 90.24 81.4 90.21 81.53 90.19 81.65 90.16 81.78 90.12 81.91 90.09 82.04 90.05 82.17 90.01 82.29 89.96 82.42 89.92 82.55 89.87 82.68 89.82 82.81 89.77 82.94 89.71 83.06 89.65 83.19 89.59 83.32 89.53 83.45 89.46 83.58 89.39 83.71 89.32 83.83 89.25 83.96 89.17 84.09 89.09 84.22 89.01 84.35 88.92 84.48 88.83 84.6 88.74 84.73 88.65 84.86 88.56 84.99 88.46 85.12 88.36 85.24 88.25 85.37 88.15 85.5 88.04 85.63 87.93 85.76 87.81 85.89 87.7 86.01 87.58 86.14 87.46 86.27 87.33 86.4 87.21 86.53 87.08 86.66 86.94 86.78 86.81 86.91 86.67 87.04 86.53 87.17 86.39 87.3 86.24 87.43 86.1 87.55 85.95 87.68 85.79 87.81 85.64 87.94 85.48 88.07 85.32 88.19 85.15 88.32 84.99 88.45 84.82 88.58 84.65 88.71 84.47 88.84 84.3 88.96 84.12 89.09 83.94 89.22 83.75 89.35 83.57 89.48 83.38 89.61 83.19 89.73 82.99 89.86 82.8 89.99 82.6 90.12 82.4 90.25 82.19 90.38 81.99 90.5 81.78 90.63 81.57 90.76 81.35 90.89 81.14 91.02 80.92 91.14 80.7 91.27 80.47 91.4 80.25 91.53 80.02 91.66 79.79 91.79 79.56 91.91 79.32 92.04 79.08 92.17 78.84 92.3 78.6 92.43 78.36 92.56 78.11 92.68 77.86 92.81 77.61 92.94 77.36 93.07 77.11 93.2 76.85 93.33 76.59 93.45 76.33 93.58 76.06 93.71 75.8 93.84 75.53 93.97 75.26 94.1 74.99 94.22 74.71 94.35 74.44 94.48 74.16 94.61 73.88 94.74 73.6 94.86 73.31 94.99 73.03 95.12 72.74 95.25 72.45 95.38 72.16 95.51 71.87 95.63 71.57 95.76 71.28 95.89 70.98 96.02 70.68 96.15 70.38 96.28 70.07 96.4 69.77 96.53 69.46 96.66 69.15 96.79 68.84 96.92 68.53 97.05 68.22 97.17 67.91 97.3 67.59 97.43 67.27 97.56 66.95 97.69 66.63 97.81 66.31 97.94 65.99 98.07 65.67 98.2 65.34 98.33 65.02 98.46 64.69 98.58 64.36 98.71 64.03 98.84 63.7 98.97 63.37 99.1 63.04 99.23 62.7 99.35 62.37 99.48 62.03 99.61 61.7 99.74 61.36 99.87 61.02 100 60.68 100.12 60.34 100.25 60 100.38 59.66 100.51 59.32 100.64 58.98 100.76 58.63 100.89 58.29 101.02 57.95 101.15 57.6 101.28 57.26 101.41 56.91 101.53 56.57 101.66 56.22 101.79 55.87 101.92 55.53 102.05 55.18 102.18 54.83 102.3 54.49 102.43 54.14 102.56 53.79 102.69 53.45 102.82 53.1 102.95 52.75 103.07 52.41 103.2 52.06 103.33 51.71 103.46 51.37 103.59 51.02 103.71 50.68 103.84 50.33 103.97 49.99 104.1 49.64 104.23 49.3 104.36 48.95 104.48 48.61 104.61 48.27 104.74 47.93 104.87 47.59 105 47.25 105.13 46.91 105.25 46.57 105.38 46.23 105.51 45.89 105.64 45.56 105.77 45.22 105.9 44.89 106.02 44.56 106.15 44.23 106.28 43.89 106.41 43.57 106.54 43.24 106.66 42.91 106.79 42.58 106.92 42.26 107.05 41.94 107.18 41.62 107.31 41.3 107.43 40.98 107.56 40.66 107.69 40.35 107.82 40.03 107.95 39.72 108.08 39.41 108.2 39.1 108.33 38.8 108.46 38.49 108.59 38.19 108.72 37.89 108.85 37.59 108.97 37.29 109.1 37 109.23 36.71 109.36 36.41 109.49 36.13 109.61 35.84 109.74 35.56 109.87 35.28 110 35 110.13 34.72 110.26 34.45 110.38 34.17 110.51 33.91 110.64 33.64 110.77 33.38 110.9 33.11 111.03 32.86 111.15 32.6 111.28 32.35 111.41 32.1 111.54 31.85 111.67 31.61 111.8 31.36 111.92 31.12 112.05 30.89 112.18 30.66 112.31 30.43 112.44 30.2 112.56 29.98 112.69 29.76 112.82 29.54 112.95 29.33 113.08 29.12 113.21 28.91 113.33 28.71 113.46 28.51 113.59 28.31 113.72 28.12 113.85 27.93 113.98 27.74 114.1 27.56 114.23 27.38 114.36 27.21 114.49 27.04 114.62 26.87 114.75 26.7 114.87 26.54 115 26.39 115.13 26.24 115.26 26.09 115.39 25.94 115.51 25.8 115.64 25.67 115.77 25.53 115.9 25.41 116.03 25.28 116.16 25.16 116.28 25.05 116.41 24.93 116.54 24.83 116.67 24.72 116.8 24.62 116.93 24.53 117.05 24.44 117.18 24.35 117.31 24.27 117.44 24.19 117.57 24.12 117.7 24.05 117.82 23.99 117.95 23.93 118.08 23.87 118.21 23.82 118.34 23.78 118.46 23.73 118.59 23.7 118.72 23.67 118.85 23.64 118.98 23.61 119.11 23.6 119.23 23.58 119.36 23.57 119.49 23.57 119.62 23.57 119.75 23.58 119.88 23.59 120 23.6 120.13 23.62 120.26 23.64 120.39 23.67 120.52 23.71 120.65 23.75 120.77 23.79 120.9 23.84 121.03 23.89 121.16 23.95 121.29 24.01 121.41 24.08 121.54 24.16 121.67 24.23 121.8 24.32 121.93 24.4 122.06 24.5 122.18 24.59 122.31 24.7 122.44 24.8 122.57 24.92 122.7 25.03 122.83 25.15 122.95 25.28 123.08 25.41 123.21 25.55 123.34 25.69 123.47 25.84 123.6 25.99 123.72 26.14 123.85 26.3 123.98 26.47 124.11 26.64 124.24 26.81 124.36 26.99 124.49 27.18 124.62 27.37 124.75 27.56 124.88 27.76 125.01 27.96 125.13 28.17 125.26 28.38 125.39 28.6 125.52 28.82 125.65 29.05 125.78 29.28 125.9 29.51 126.03 29.75 126.16 30 126.29 30.24 126.42 30.5 126.55 30.75 126.67 31.01 126.8 31.28 126.93 31.55 127.06 31.82 127.19 32.1 127.31 32.38 127.44 32.67 127.57 32.96 127.7 33.25 127.83 33.55 127.96 33.85 128.08 34.15 128.21 34.46 128.34 34.77 128.47 35.09 128.6 35.41 128.73 35.73 128.85 36.06 128.98 36.39 129.11 36.72 129.24 37.06 129.37 37.4 129.5 37.74 129.62 38.09 129.75 38.44 129.88 38.79 130.01 39.15 130.14 39.5 130.27 39.87 130.39 40.23 130.52 40.59 130.65 40.96 130.78 41.33 130.91 41.71 131.03 42.08 131.16 42.46 131.29 42.84 131.42 43.23 131.55 43.61 131.68 44 131.8 44.39 131.93 44.78 132.06 45.17 132.19 45.56 132.32 45.96 132.45 46.36 132.57 46.76 132.7 47.16 132.83 47.56 132.96 47.96 133.09 48.36 133.22 48.77 133.34 49.17 133.47 49.58 133.6 49.99 133.73 50.4 133.86 50.8 133.98 51.21 134.11 51.62 134.24 52.03 134.37 52.44 134.5 52.85 134.63 53.26 134.75 53.67 134.88 54.09 135.01 54.5 135.14 54.91 135.27 55.32 135.4 55.73 135.52 56.13 135.65 56.54 135.78 56.95 135.91 57.36 136.04 57.76 136.17 58.17 136.29 58.57 136.42 58.98 136.55 59.38 136.68 59.78 136.81 60.18 136.93 60.58 137.06 60.97 137.19 61.37 137.32 61.76 137.45 62.15 137.58 62.54 137.7 62.93 137.83 63.32 137.96 63.7 138.09 64.08 138.22 64.46 138.35 64.84 138.47 65.21 138.6 65.58 138.73 65.95 138.86 66.32 138.99 66.69 139.12 67.05 139.24 67.41 139.37 67.76 139.5 68.12 139.63 68.47 139.76 68.81 139.88 69.16 140.01 69.5 140.14 69.84 140.27 70.17 140.4 70.5 140.53 70.83 140.65 71.15 140.78 71.47 140.91 71.79 141.04 72.1 141.17 72.41 141.3 72.72 141.42 73.02 141.55 73.32 141.68 73.62 141.81 73.91 141.94 74.19 142.07 74.48 142.19 74.75 142.32 75.03 142.45 75.3 142.58 75.56 142.71 75.83 142.83 76.08 142.96 76.34 143.09 76.59 143.22 76.83 143.35 77.07 143.48 77.31 143.6 77.54 143.73 77.77 143.86 77.99 143.99 78.21 144.12 78.43 144.25 78.64 144.37 78.84 144.5 79.04 144.63 79.24 144.76 79.43 144.89 79.62 145.02 79.8 145.14 79.98 145.27 80.15 145.4 80.32"/>
      </g>
      <g stroke-width="0.3" fill="none" class="geometry" stroke="#800080" id="fig-9d3648133b0b4785bb735f47a7f5bb3a-element-12">
        <path d="M17.27,70.86 L 17.39 70.86 17.52 70.86 17.65 70.86 17.78 70.85 17.91 70.85 18.04 70.84 18.16 70.83 18.29 70.82 18.42 70.81 18.55 70.8 18.68 70.79 18.8 70.77 18.93 70.76 19.06 70.74 19.19 70.72 19.32 70.7 19.45 70.68 19.57 70.66 19.7 70.63 19.83 70.61 19.96 70.58 20.09 70.56 20.22 70.53 20.34 70.5 20.47 70.47 20.6 70.44 20.73 70.4 20.86 70.37 20.99 70.33 21.11 70.3 21.24 70.26 21.37 70.22 21.5 70.18 21.63 70.14 21.76 70.1 21.88 70.05 22.01 70.01 22.14 69.96 22.27 69.92 22.4 69.87 22.52 69.82 22.65 69.77 22.78 69.72 22.91 69.66 23.04 69.61 23.17 69.56 23.29 69.5 23.42 69.45 23.55 69.39 23.68 69.33 23.81 69.27 23.94 69.21 24.06 69.15 24.19 69.09 24.32 69.02 24.45 68.96 24.58 68.9 24.71 68.83 24.83 68.76 24.96 68.7 25.09 68.63 25.22 68.56 25.35 68.49 25.47 68.42 25.6 68.35 25.73 68.28 25.86 68.2 25.99 68.13 26.12 68.05 26.24 67.98 26.37 67.9 26.5 67.83 26.63 67.75 26.76 67.67 26.89 67.59 27.01 67.51 27.14 67.43 27.27 67.35 27.4 67.27 27.53 67.19 27.66 67.11 27.78 67.03 27.91 66.95 28.04 66.86 28.17 66.78 28.3 66.69 28.42 66.61 28.55 66.53 28.68 66.44 28.81 66.35 28.94 66.27 29.07 66.18 29.19 66.09 29.32 66.01 29.45 65.92 29.58 65.83 29.71 65.75 29.84 65.66 29.96 65.57 30.09 65.48 30.22 65.39 30.35 65.3 30.48 65.22 30.61 65.13 30.73 65.04 30.86 64.95 30.99 64.86 31.12 64.77 31.25 64.68 31.37 64.59 31.5 64.5 31.63 64.42 31.76 64.33 31.89 64.24 32.02 64.15 32.14 64.06 32.27 63.97 32.4 63.89 32.53 63.8 32.66 63.71 32.79 63.62 32.91 63.54 33.04 63.45 33.17 63.36 33.3 63.28 33.43 63.19 33.56 63.11 33.68 63.02 33.81 62.94 33.94 62.85 34.07 62.77 34.2 62.69 34.32 62.6 34.45 62.52 34.58 62.44 34.71 62.36 34.84 62.28 34.97 62.2 35.09 62.12 35.22 62.04 35.35 61.96 35.48 61.89 35.61 61.81 35.74 61.74 35.86 61.66 35.99 61.59 36.12 61.51 36.25 61.44 36.38 61.37 36.51 61.3 36.63 61.23 36.76 61.16 36.89 61.09 37.02 61.02 37.15 60.96 37.27 60.89 37.4 60.83 37.53 60.76 37.66 60.7 37.79 60.64 37.92 60.58 38.04 60.52 38.17 60.46 38.3 60.41 38.43 60.35 38.56 60.3 38.69 60.24 38.81 60.19 38.94 60.14 39.07 60.09 39.2 60.04 39.33 59.99 39.46 59.95 39.58 59.9 39.71 59.86 39.84 59.82 39.97 59.78 40.1 59.74 40.22 59.7 40.35 59.66 40.48 59.63 40.61 59.59 40.74 59.56 40.87 59.53 40.99 59.5 41.12 59.47 41.25 59.45 41.38 59.42 41.51 59.4 41.64 59.38 41.76 59.36 41.89 59.34 42.02 59.32 42.15 59.31 42.28 59.29 42.41 59.28 42.53 59.27 42.66 59.26 42.79 59.25 42.92 59.25 43.05 59.25 43.17 59.24 43.3 59.24 43.43 59.24 43.56 59.25 43.69 59.25 43.82 59.26 43.94 59.27 44.07 59.28 44.2 59.29 44.33 59.3 44.46 59.32 44.59 59.34 44.71 59.36 44.84 59.38 44.97 59.4 45.1 59.43 45.23 59.45 45.36 59.48 45.48 59.51 45.61 59.54 45.74 59.58 45.87 59.61 46 59.65 46.12 59.69 46.25 59.73 46.38 59.78 46.51 59.82 46.64 59.87 46.77 59.92 46.89 59.97 47.02 60.03 47.15 60.08 47.28 60.14 47.41 60.2 47.54 60.26 47.66 60.33 47.79 60.39 47.92 60.46 48.05 60.53 48.18 60.6 48.31 60.67 48.43 60.75 48.56 60.83 48.69 60.9 48.82 60.99 48.95 61.07 49.07 61.15 49.2 61.24 49.33 61.33 49.46 61.42 49.59 61.52 49.72 61.61 49.84 61.71 49.97 61.81 50.1 61.91 50.23 62.01 50.36 62.12 50.49 62.22 50.61 62.33 50.74 62.44 50.87 62.56 51 62.67 51.13 62.79 51.26 62.91 51.38 63.03 51.51 63.15 51.64 63.27 51.77 63.4 51.9 63.53 52.02 63.66 52.15 63.79 52.28 63.93 52.41 64.06 52.54 64.2 52.67 64.34 52.79 64.48 52.92 64.62 53.05 64.77 53.18 64.92 53.31 65.06 53.44 65.21 53.56 65.37 53.69 65.52 53.82 65.68 53.95 65.83 54.08 65.99 54.21 66.15 54.33 66.32 54.46 66.48 54.59 66.65 54.72 66.81 54.85 66.98 54.97 67.16 55.1 67.33 55.23 67.5 55.36 67.68 55.49 67.86 55.62 68.03 55.74 68.21 55.87 68.4 56 68.58 56.13 68.77 56.26 68.95 56.39 69.14 56.51 69.33 56.64 69.52 56.77 69.71 56.9 69.91 57.03 70.1 57.16 70.3 57.28 70.5 57.41 70.69 57.54 70.9 57.67 71.1 57.8 71.3 57.93 71.5 58.05 71.71 58.18 71.92 58.31 72.12 58.44 72.33 58.57 72.54 58.69 72.75 58.82 72.97 58.95 73.18 59.08 73.39 59.21 73.61 59.34 73.83 59.46 74.04 59.59 74.26 59.72 74.48 59.85 74.7 59.98 74.92 60.11 75.14 60.23 75.37 60.36 75.59 60.49 75.81 60.62 76.04 60.75 76.26 60.88 76.49 61 76.72 61.13 76.94 61.26 77.17 61.39 77.4 61.52 77.63 61.64 77.86 61.77 78.09 61.9 78.32 62.03 78.55 62.16 78.79 62.29 79.02 62.41 79.25 62.54 79.48 62.67 79.72 62.8 79.95 62.93 80.19 63.06 80.42 63.18 80.65 63.31 80.89 63.44 81.12 63.57 81.36 63.7 81.59 63.83 81.83 63.95 82.06 64.08 82.3 64.21 82.53 64.34 82.77 64.47 83 64.59 83.24 64.72 83.47 64.85 83.71 64.98 83.94 65.11 84.17 65.24 84.41 65.36 84.64 65.49 84.87 65.62 85.11 65.75 85.34 65.88 85.57 66.01 85.8 66.13 86.03 66.26 86.26 66.39 86.49 66.52 86.72 66.65 86.95 66.78 87.18 66.9 87.4 67.03 87.63 67.16 87.86 67.29 88.08 67.42 88.31 67.54 88.53 67.67 88.75 67.8 88.97 67.93 89.19 68.06 89.41 68.19 89.63 68.31 89.85 68.44 90.07 68.57 90.28 68.7 90.5 68.83 90.71 68.96 90.92 69.08 91.13 69.21 91.34 69.34 91.55 69.47 91.76 69.6 91.97 69.73 92.17 69.85 92.37 69.98 92.57 70.11 92.78 70.24 92.97 70.37 93.17 70.49 93.37 70.62 93.56 70.75 93.75 70.88 93.94 71.01 94.13 71.14 94.32 71.26 94.51 71.39 94.69 71.52 94.87 71.65 95.05 71.78 95.23 71.91 95.41 72.03 95.58 72.16 95.76 72.29 95.93 72.42 96.1 72.55 96.26 72.68 96.43 72.8 96.59 72.93 96.75 73.06 96.91 73.19 97.07 73.32 97.22 73.44 97.37 73.57 97.52 73.7 97.67 73.83 97.81 73.96 97.96 74.09 98.1 74.21 98.24 74.34 98.37 74.47 98.5 74.6 98.64 74.73 98.76 74.86 98.89 74.98 99.01 75.11 99.13 75.24 99.25 75.37 99.37 75.5 99.48 75.63 99.59 75.75 99.7 75.88 99.8 76.01 99.9 76.14 100 76.27 100.1 76.39 100.19 76.52 100.29 76.65 100.37 76.78 100.46 76.91 100.54 77.04 100.62 77.16 100.7 77.29 100.77 77.42 100.84 77.55 100.91 77.68 100.97 77.81 101.04 77.93 101.09 78.06 101.15 78.19 101.2 78.32 101.25 78.45 101.3 78.58 101.34 78.7 101.38 78.83 101.42 78.96 101.45 79.09 101.48 79.22 101.51 79.34 101.53 79.47 101.56 79.6 101.57 79.73 101.59 79.86 101.6 79.99 101.61 80.11 101.61 80.24 101.61 80.37 101.61 80.5 101.6 80.63 101.59 80.76 101.58 80.88 101.57 81.01 101.55 81.14 101.52 81.27 101.5 81.4 101.47 81.53 101.44 81.65 101.4 81.78 101.36 81.91 101.32 82.04 101.27 82.17 101.22 82.29 101.17 82.42 101.11 82.55 101.05 82.68 100.99 82.81 100.92 82.94 100.85 83.06 100.77 83.19 100.69 83.32 100.61 83.45 100.53 83.58 100.44 83.71 100.35 83.83 100.25 83.96 100.15 84.09 100.05 84.22 99.94 84.35 99.83 84.48 99.72 84.6 99.6 84.73 99.48 84.86 99.36 84.99 99.23 85.12 99.1 85.24 98.96 85.37 98.82 85.5 98.68 85.63 98.54 85.76 98.39 85.89 98.24 86.01 98.08 86.14 97.92 86.27 97.76 86.4 97.59 86.53 97.42 86.66 97.25 86.78 97.07 86.91 96.89 87.04 96.71 87.17 96.52 87.3 96.33 87.43 96.14 87.55 95.94 87.68 95.74 87.81 95.53 87.94 95.33 88.07 95.12 88.19 94.9 88.32 94.68 88.45 94.46 88.58 94.24 88.71 94.01 88.84 93.78 88.96 93.54 89.09 93.31 89.22 93.07 89.35 92.82 89.48 92.58 89.61 92.33 89.73 92.07 89.86 91.81 89.99 91.55 90.12 91.29 90.25 91.03 90.38 90.76 90.5 90.48 90.63 90.21 90.76 89.93 90.89 89.65 91.02 89.37 91.14 89.08 91.27 88.79 91.4 88.49 91.53 88.2 91.66 87.9 91.79 87.6 91.91 87.29 92.04 86.99 92.17 86.68 92.3 86.36 92.43 86.05 92.56 85.73 92.68 85.41 92.81 85.09 92.94 84.76 93.07 84.43 93.2 84.1 93.33 83.77 93.45 83.43 93.58 83.09 93.71 82.75 93.84 82.41 93.97 82.06 94.1 81.71 94.22 81.36 94.35 81.01 94.48 80.65 94.61 80.29 94.74 79.94 94.86 79.57 94.99 79.21 95.12 78.84 95.25 78.48 95.38 78.11 95.51 77.73 95.63 77.36 95.76 76.98 95.89 76.61 96.02 76.23 96.15 75.84 96.28 75.46 96.4 75.08 96.53 74.69 96.66 74.3 96.79 73.91 96.92 73.52 97.05 73.13 97.17 72.73 97.3 72.34 97.43 71.94 97.56 71.54 97.69 71.14 97.81 70.74 97.94 70.34 98.07 69.93 98.2 69.53 98.33 69.12 98.46 68.71 98.58 68.31 98.71 67.9 98.84 67.49 98.97 67.07 99.1 66.66 99.23 66.25 99.35 65.84 99.48 65.42 99.61 65.01 99.74 64.59 99.87 64.17 100 63.76 100.12 63.34 100.25 62.92 100.38 62.5 100.51 62.08 100.64 61.66 100.76 61.24 100.89 60.82 101.02 60.4 101.15 59.98 101.28 59.56 101.41 59.14 101.53 58.72 101.66 58.3 101.79 57.88 101.92 57.45 102.05 57.03 102.18 56.61 102.3 56.19 102.43 55.77 102.56 55.35 102.69 54.93 102.82 54.52 102.95 54.1 103.07 53.68 103.2 53.26 103.33 52.84 103.46 52.43 103.59 52.01 103.71 51.6 103.84 51.18 103.97 50.77 104.1 50.36 104.23 49.95 104.36 49.54 104.48 49.13 104.61 48.72 104.74 48.31 104.87 47.91 105 47.5 105.13 47.1 105.25 46.7 105.38 46.3 105.51 45.9 105.64 45.5 105.77 45.1 105.9 44.71 106.02 44.31 106.15 43.92 106.28 43.53 106.41 43.14 106.54 42.76 106.66 42.37 106.79 41.99 106.92 41.61 107.05 41.23 107.18 40.85 107.31 40.48 107.43 40.1 107.56 39.73 107.69 39.36 107.82 39 107.95 38.63 108.08 38.27 108.2 37.91 108.33 37.56 108.46 37.2 108.59 36.85 108.72 36.5 108.85 36.15 108.97 35.81 109.1 35.47 109.23 35.13 109.36 34.8 109.49 34.46 109.61 34.13 109.74 33.8 109.87 33.48 110 33.16 110.13 32.84 110.26 32.53 110.38 32.21 110.51 31.91 110.64 31.6 110.77 31.3 110.9 31 111.03 30.7 111.15 30.41 111.28 30.12 111.41 29.84 111.54 29.55 111.67 29.27 111.8 29 111.92 28.73 112.05 28.46 112.18 28.2 112.31 27.94 112.44 27.68 112.56 27.43 112.69 27.18 112.82 26.93 112.95 26.69 113.08 26.45 113.21 26.22 113.33 25.99 113.46 25.77 113.59 25.55 113.72 25.33 113.85 25.12 113.98 24.91 114.1 24.7 114.23 24.5 114.36 24.31 114.49 24.12 114.62 23.93 114.75 23.75 114.87 23.57 115 23.39 115.13 23.22 115.26 23.06 115.39 22.9 115.51 22.74 115.64 22.59 115.77 22.44 115.9 22.3 116.03 22.17 116.16 22.03 116.28 21.9 116.41 21.78 116.54 21.66 116.67 21.55 116.8 21.44 116.93 21.34 117.05 21.24 117.18 21.14 117.31 21.05 117.44 20.97 117.57 20.89 117.7 20.81 117.82 20.75 117.95 20.68 118.08 20.62 118.21 20.57 118.34 20.52 118.46 20.47 118.59 20.43 118.72 20.4 118.85 20.37 118.98 20.35 119.11 20.33 119.23 20.32 119.36 20.31 119.49 20.3 119.62 20.31 119.75 20.31 119.88 20.33 120 20.35 120.13 20.37 120.26 20.4 120.39 20.43 120.52 20.47 120.65 20.51 120.77 20.56 120.9 20.62 121.03 20.68 121.16 20.75 121.29 20.82 121.41 20.89 121.54 20.97 121.67 21.06 121.8 21.15 121.93 21.25 122.06 21.36 122.18 21.46 122.31 21.58 122.44 21.7 122.57 21.82 122.7 21.95 122.83 22.09 122.95 22.23 123.08 22.38 123.21 22.53 123.34 22.68 123.47 22.85 123.6 23.01 123.72 23.19 123.85 23.36 123.98 23.55 124.11 23.74 124.24 23.93 124.36 24.13 124.49 24.34 124.62 24.55 124.75 24.76 124.88 24.98 125.01 25.21 125.13 25.44 125.26 25.68 125.39 25.92 125.52 26.17 125.65 26.42 125.78 26.67 125.9 26.94 126.03 27.2 126.16 27.48 126.29 27.76 126.42 28.04 126.55 28.33 126.67 28.62 126.8 28.92 126.93 29.22 127.06 29.53 127.19 29.84 127.31 30.16 127.44 30.48 127.57 30.81 127.7 31.14 127.83 31.48 127.96 31.82 128.08 32.17 128.21 32.52 128.34 32.88 128.47 33.24 128.6 33.61 128.73 33.98 128.85 34.36 128.98 34.74 129.11 35.12 129.24 35.51 129.37 35.9 129.5 36.3 129.62 36.71 129.75 37.11 129.88 37.53 130.01 37.94 130.14 38.36 130.27 38.79 130.39 39.22 130.52 39.65 130.65 40.09 130.78 40.53 130.91 40.97 131.03 41.42 131.16 41.88 131.29 42.34 131.42 42.8 131.55 43.26 131.68 43.73 131.8 44.21 131.93 44.68 132.06 45.17 132.19 45.65 132.32 46.14 132.45 46.63 132.57 47.13 132.7 47.63 132.83 48.13 132.96 48.64 133.09 49.14 133.22 49.66 133.34 50.17 133.47 50.69 133.6 51.22 133.73 51.74 133.86 52.27 133.98 52.8 134.11 53.34 134.24 53.88 134.37 54.42 134.5 54.96 134.63 55.51 134.75 56.06 134.88 56.61 135.01 57.17 135.14 57.72 135.27 58.28 135.4 58.85 135.52 59.41 135.65 59.98 135.78 60.55 135.91 61.12 136.04 61.7 136.17 62.27 136.29 62.85 136.42 63.43 136.55 64.01 136.68 64.6 136.81 65.19 136.93 65.77 137.06 66.36 137.19 66.96 137.32 67.55 137.45 68.15 137.58 68.74 137.7 69.34 137.83 69.94 137.96 70.54 138.09 71.14 138.22 71.75 138.35 72.35 138.47 72.96 138.6 73.57 138.73 74.17 138.86 74.78 138.99 75.39 139.12 76 139.24 76.62 139.37 77.23 139.5 77.84 139.63 78.45 139.76 79.07 139.88 79.68 140.01 80.3 140.14 80.91 140.27 81.53 140.4 82.14 140.53 82.76 140.65 83.37 140.78 83.99 140.91 84.61 141.04 85.22 141.17 85.84 141.3 86.45 141.42 87.07 141.55 87.68 141.68 88.29 141.81 88.91 141.94 89.52 142.07 90.13 142.19 90.74 142.32 91.36 142.45 91.97 142.58 92.57 142.71 93.18 142.83 93.79 142.96 94.39 143.09 95 143.22 95.6 143.35 96.2 143.48 96.81 143.6 97.4 143.73 98 143.86 98.6 143.99 99.19 144.12 99.79 144.25 100.38 144.37 100.97 144.5 101.55 144.63 102.14 144.76 102.72 144.89 103.3 145.02 103.88 145.14 104.46 145.27 105.04 145.4 105.61"/>
      </g>
      <g class="geometry color_RGB(0.5019607843137255,0.0,0.5019607843137255)" stroke-width="0.3" stroke="#57005A" id="fig-9d3648133b0b4785bb735f47a7f5bb3a-element-13">
        <path d="M17.05,70.8 L 20.05 70.8"/>
        <path d="M23.66,68.59 L 26.66 68.59"/>
        <path d="M30.27,64.32 L 33.27 64.32"/>
        <path d="M36.87,60.37 L 39.87 60.37"/>
        <path d="M43.48,59.4 L 46.48 59.4"/>
        <path d="M50.09,63.23 L 53.09 63.23"/>
        <path d="M56.7,71.95 L 59.7 71.95"/>
        <path d="M63.31,83.63 L 66.31 83.63"/>
        <path d="M69.92,94.73 L 72.92 94.73"/>
        <path d="M76.53,101.14 L 79.53 101.14"/>
        <path d="M83.14,99.57 L 86.14 99.57"/>
        <path d="M89.75,88.85 L 92.75 88.85"/>
        <path d="M96.36,70.61 L 99.36 70.61"/>
        <path d="M102.96,49.19 L 105.96 49.19"/>
        <path d="M109.57,30.59 L 112.57 30.59"/>
        <path d="M116.18,20.82 L 119.18 20.82"/>
        <path d="M122.79,24.02 L 125.79 24.02"/>
        <path d="M129.4,40.95 L 132.4 40.95"/>
        <path d="M136.01,68.43 L 139.01 68.43"/>
        <path d="M142.62,99.79 L 145.62 99.79"/>
        <path d="M18.55,57.82 L 18.55 70.8"/>
        <path d="M25.16,60.26 L 25.16 68.59"/>
        <path d="M31.77,50.56 L 31.77 64.32"/>
        <path d="M38.37,42.83 L 38.37 60.37"/>
        <path d="M44.98,50.25 L 44.98 59.4"/>
        <path d="M51.59,50.05 L 51.59 63.23"/>
        <path d="M58.2,64.89 L 58.2 71.95"/>
        <path d="M64.81,70.08 L 64.81 83.63"/>
        <path d="M71.42,82.02 L 71.42 94.73"/>
        <path d="M78.03,88.77 L 78.03 101.14"/>
        <path d="M84.64,82.81 L 84.64 99.57"/>
        <path d="M91.25,79.43 L 91.25 88.85"/>
        <path d="M97.86,62.87 L 97.86 70.61"/>
        <path d="M104.46,42.22 L 104.46 49.19"/>
        <path d="M111.07,20.58 L 111.07 30.59"/>
        <path d="M117.68,11.47 L 117.68 20.82"/>
        <path d="M124.29,11.59 L 124.29 24.02"/>
        <path d="M130.9,26.94 L 130.9 40.95"/>
        <path d="M137.51,52.59 L 137.51 68.43"/>
        <path d="M144.12,82.25 L 144.12 99.79"/>
        <path d="M17.05,57.82 L 20.05 57.82"/>
        <path d="M23.66,60.26 L 26.66 60.26"/>
        <path d="M30.27,50.56 L 33.27 50.56"/>
        <path d="M36.87,42.83 L 39.87 42.83"/>
        <path d="M43.48,50.25 L 46.48 50.25"/>
        <path d="M50.09,50.05 L 53.09 50.05"/>
        <path d="M56.7,64.89 L 59.7 64.89"/>
        <path d="M63.31,70.08 L 66.31 70.08"/>
        <path d="M69.92,82.02 L 72.92 82.02"/>
        <path d="M76.53,88.77 L 79.53 88.77"/>
        <path d="M83.14,82.81 L 86.14 82.81"/>
        <path d="M89.75,79.43 L 92.75 79.43"/>
        <path d="M96.36,62.87 L 99.36 62.87"/>
        <path d="M102.96,42.22 L 105.96 42.22"/>
        <path d="M109.57,20.58 L 112.57 20.58"/>
        <path d="M116.18,11.47 L 119.18 11.47"/>
        <path d="M122.79,11.59 L 125.79 11.59"/>
        <path d="M129.4,26.94 L 132.4 26.94"/>
        <path d="M136.01,52.59 L 139.01 52.59"/>
        <path d="M142.62,82.25 L 145.62 82.25"/>
      </g>
      <g class="geometry" id="fig-9d3648133b0b4785bb735f47a7f5bb3a-element-14">
        <g class="color_RGB(0.5019607843137255,0.0,0.5019607843137255)" stroke="#FFFFFF" stroke-width="0.3" fill="#800080" id="fig-9d3648133b0b4785bb735f47a7f5bb3a-element-15">
          <circle cx="18.55" cy="64.31" r="0.9"/>
          <circle cx="25.16" cy="64.43" r="0.9"/>
          <circle cx="31.77" cy="57.44" r="0.9"/>
          <circle cx="38.37" cy="51.6" r="0.9"/>
          <circle cx="44.98" cy="54.82" r="0.9"/>
          <circle cx="51.59" cy="56.64" r="0.9"/>
          <circle cx="58.2" cy="68.42" r="0.9"/>
          <circle cx="64.81" cy="76.85" r="0.9"/>
          <circle cx="71.42" cy="88.38" r="0.9"/>
          <circle cx="78.03" cy="94.95" r="0.9"/>
          <circle cx="84.64" cy="91.19" r="0.9"/>
          <circle cx="91.25" cy="84.14" r="0.9"/>
          <circle cx="97.86" cy="66.74" r="0.9"/>
          <circle cx="104.46" cy="45.71" r="0.9"/>
          <circle cx="111.07" cy="25.59" r="0.9"/>
          <circle cx="117.68" cy="16.14" r="0.9"/>
          <circle cx="124.29" cy="17.8" r="0.9"/>
          <circle cx="130.9" cy="33.95" r="0.9"/>
          <circle cx="137.51" cy="60.51" r="0.9"/>
          <circle cx="144.12" cy="91.02" r="0.9"/>
        </g>
      </g>
    </g>
  </g>
  <g class="guide ylabels" font-size="2.82" font-family="'PT Sans Caption','Helvetica Neue','Helvetica',sans-serif" fill="#6C606B" id="fig-9d3648133b0b4785bb735f47a7f5bb3a-element-16">
    <text x="14.27" y="134.73" text-anchor="end" dy="0.35em">-10</text>
    <text x="14.27" y="102.8" text-anchor="end" dy="0.35em">-5</text>
    <text x="14.27" y="70.86" text-anchor="end" dy="0.35em">0</text>
    <text x="14.27" y="38.93" text-anchor="end" dy="0.35em">5</text>
    <text x="14.27" y="7" text-anchor="end" dy="0.35em">10</text>
  </g>
  <g font-size="3.88" font-family="'PT Sans','Helvetica Neue','Helvetica',sans-serif" fill="#564A55" stroke="none" id="fig-9d3648133b0b4785bb735f47a7f5bb3a-element-17">
    <text x="8.81" y="70.86" text-anchor="end" dy="0.35em">y</text>
  </g>
</g>
<defs>
<clipPath id="fig-9d3648133b0b4785bb735f47a7f5bb3a-element-5">
  <path d="M15.27,5 L 147.4 5 147.4 136.73 15.27 136.73" />
</clipPath
></defs>
</svg>
